<?xml version="1.0" encoding="UTF-8" standalone="no"?>
<!-- Created with Inkscape (http://www.inkscape.org/) -->

<svg
   xmlns:dc="http://purl.org/dc/elements/1.1/"
   xmlns:cc="http://creativecommons.org/ns#"
   xmlns:rdf="http://www.w3.org/1999/02/22-rdf-syntax-ns#"
   xmlns:svg="http://www.w3.org/2000/svg"
   xmlns="http://www.w3.org/2000/svg"
   xmlns:sodipodi="http://sodipodi.sourceforge.net/DTD/sodipodi-0.dtd"
   xmlns:inkscape="http://www.inkscape.org/namespaces/inkscape"
   width="1600"
   height="900"
   viewBox="0 0 423.33333 238.12501"
   version="1.1"
   id="svg3907"
   sodipodi:docname="slide-background.svg"
   inkscape:version="0.92.3 (2405546, 2018-03-11)">
  <defs
     id="defs3901">
    <marker
       style="color:#ffa600;overflow:visible"
       orient="auto"
       overflow="visible"
       markerUnits="strokeWidth"
       id="FilledArrow_Marker"
       viewBox="-1 -2 5 4"
       markerWidth="5"
       markerHeight="4">
      <g
         id="g3834">
        <path
           style="fill:currentColor;stroke:currentColor;stroke-width:1"
           inkscape:connector-curvature="0"
           d="M 2.0987004,0 0,-0.78701265 v 1.5740253 z"
           id="path3832" />
      </g>
    </marker>
    <marker
       style="color:#ffa600;overflow:visible"
       orient="auto"
       overflow="visible"
       markerUnits="strokeWidth"
       id="marker3924"
       viewBox="-1 -2 5 4"
       markerWidth="5"
       markerHeight="4">
      <g
         id="g3922">
        <path
           style="fill:currentColor;stroke:currentColor;stroke-width:1"
           inkscape:connector-curvature="0"
           d="M 2.0987004,0 0,-0.78701265 v 1.5740253 z"
           id="path3920" />
      </g>
    </marker>
    <marker
       style="color:#ffa600;overflow:visible"
       orient="auto"
       overflow="visible"
       markerUnits="strokeWidth"
       id="marker3930"
       viewBox="-1 -2 5 4"
       markerWidth="5"
       markerHeight="4">
      <g
         id="g3928">
        <path
           style="fill:currentColor;stroke:currentColor;stroke-width:1"
           inkscape:connector-curvature="0"
           d="M 2.0987004,0 0,-0.78701265 v 1.5740253 z"
           id="path3926" />
      </g>
    </marker>
    <marker
       style="color:#0e3d7e;overflow:visible"
       orient="auto"
       overflow="visible"
       markerUnits="strokeWidth"
       id="FilledArrow_Marker_2"
       viewBox="-1 -2 5 4"
       markerWidth="5"
       markerHeight="4">
      <g
         id="g3839">
        <path
           style="fill:currentColor;stroke:currentColor;stroke-width:1"
           inkscape:connector-curvature="0"
           d="M 2.0986986,0 0,-0.787012 v 1.574024 z"
           id="path3837" />
      </g>
    </marker>
    <marker
       style="color:#0e3d7e;overflow:visible"
       orient="auto"
       overflow="visible"
       markerUnits="strokeWidth"
       id="FilledArrow_Marker_3"
       viewBox="-1 -2 5 4"
       markerWidth="5"
       markerHeight="4">
      <g
         id="g3844">
        <path
           style="fill:currentColor;stroke:currentColor;stroke-width:1"
           inkscape:connector-curvature="0"
           d="M 2.0987004,0 0,-0.78701265 v 1.5740253 z"
           id="path3842" />
      </g>
    </marker>
    <marker
       style="color:#0e3d7e;overflow:visible"
       orient="auto"
       overflow="visible"
       markerUnits="strokeWidth"
       id="marker3942"
       viewBox="-1 -2 5 4"
       markerWidth="5"
       markerHeight="4">
      <g
         id="g3940">
        <path
           style="fill:currentColor;stroke:currentColor;stroke-width:1"
           inkscape:connector-curvature="0"
           d="M 2.0987004,0 0,-0.78701265 v 1.5740253 z"
           id="path3938" />
      </g>
    </marker>
    <marker
       style="color:#0e3d7e;overflow:visible"
       orient="auto"
       overflow="visible"
       markerUnits="strokeWidth"
       id="marker3948"
       viewBox="-1 -2 5 4"
       markerWidth="5"
       markerHeight="4">
      <g
         id="g3946">
        <path
           style="fill:currentColor;stroke:currentColor;stroke-width:1"
           inkscape:connector-curvature="0"
           d="M 2.0987004,0 0,-0.78701265 v 1.5740253 z"
           id="path3944" />
      </g>
    </marker>
    <clipPath
       id="clipPath17">
      <path
         inkscape:connector-curvature="0"
         d="M 0,0 H 595.276 V 841.89 H 0 Z"
         id="path19" />
    </clipPath>
    <clipPath
       id="clipPath971">
      <path
         inkscape:connector-curvature="0"
         d="m 441.496,696.189 h 102.047 v 50.457 H 441.496 Z"
         id="path973" />
    </clipPath>
    <clipPath
       id="clipPath1025">
      <path
         inkscape:connector-curvature="0"
         d="m 447.057,701.439 h 93.828 v 44.991 h -93.828 z"
         id="path1027" />
    </clipPath>
    <clipPath
       id="clipPath1059">
      <path
         inkscape:connector-curvature="0"
         d="m 447.057,701.439 h 93.828 v 44.991 h -93.828 z"
         id="path1061" />
    </clipPath>
    <marker
       style="color:#ffa600;overflow:visible"
       orient="auto"
       overflow="visible"
       markerUnits="strokeWidth"
       id="FilledArrow_Marker-3"
       viewBox="-1 -2 5 4"
       markerWidth="5"
       markerHeight="4">
      <g
         id="g907">
        <path
           style="fill:currentColor;stroke:currentColor;stroke-width:1"
           inkscape:connector-curvature="0"
           d="M 2.0987004,0 0,-0.78701265 v 1.5740253 z"
           id="path905" />
      </g>
    </marker>
    <marker
       style="color:#ffa600;overflow:visible"
       orient="auto"
       overflow="visible"
       markerUnits="strokeWidth"
       id="marker1559"
       viewBox="-1 -2 5 4"
       markerWidth="5"
       markerHeight="4">
      <g
         id="g1557">
        <path
           style="fill:currentColor;stroke:currentColor;stroke-width:1"
           inkscape:connector-curvature="0"
           d="M 2.0987004,0 0,-0.78701265 v 1.5740253 z"
           id="path1555" />
      </g>
    </marker>
    <marker
       style="color:#ffa600;overflow:visible"
       orient="auto"
       overflow="visible"
       markerUnits="strokeWidth"
       id="marker1565"
       viewBox="-1 -2 5 4"
       markerWidth="5"
       markerHeight="4">
      <g
         id="g1563">
        <path
           style="fill:currentColor;stroke:currentColor;stroke-width:1"
           inkscape:connector-curvature="0"
           d="M 2.0987004,0 0,-0.78701265 v 1.5740253 z"
           id="path1561" />
      </g>
    </marker>
    <marker
       style="color:#0e3d7e;overflow:visible"
       orient="auto"
       overflow="visible"
       markerUnits="strokeWidth"
       id="FilledArrow_Marker_2-6"
       viewBox="-1 -2 5 4"
       markerWidth="5"
       markerHeight="4">
      <g
         id="g912">
        <path
           style="fill:currentColor;stroke:currentColor;stroke-width:1"
           inkscape:connector-curvature="0"
           d="M 2.0986986,0 0,-0.787012 v 1.574024 z"
           id="path910" />
      </g>
    </marker>
    <marker
       style="color:#0e3d7e;overflow:visible"
       orient="auto"
       overflow="visible"
       markerUnits="strokeWidth"
       id="FilledArrow_Marker_3-7"
       viewBox="-1 -2 5 4"
       markerWidth="5"
       markerHeight="4">
      <g
         id="g917">
        <path
           style="fill:currentColor;stroke:currentColor;stroke-width:1"
           inkscape:connector-curvature="0"
           d="M 2.0987004,0 0,-0.78701265 v 1.5740253 z"
           id="path915" />
      </g>
    </marker>
    <marker
       style="color:#0e3d7e;overflow:visible"
       orient="auto"
       overflow="visible"
       markerUnits="strokeWidth"
       id="marker1577"
       viewBox="-1 -2 5 4"
       markerWidth="5"
       markerHeight="4">
      <g
         id="g1575">
        <path
           style="fill:currentColor;stroke:currentColor;stroke-width:1"
           inkscape:connector-curvature="0"
           d="M 2.0987004,0 0,-0.78701265 v 1.5740253 z"
           id="path1573" />
      </g>
    </marker>
    <marker
       style="color:#0e3d7e;overflow:visible"
       orient="auto"
       overflow="visible"
       markerUnits="strokeWidth"
       id="marker1583"
       viewBox="-1 -2 5 4"
       markerWidth="5"
       markerHeight="4">
      <g
         id="g1581">
        <path
           style="fill:currentColor;stroke:currentColor;stroke-width:1"
           inkscape:connector-curvature="0"
           d="M 2.0987004,0 0,-0.78701265 v 1.5740253 z"
           id="path1579" />
      </g>
    </marker>
  </defs>
  <sodipodi:namedview
     id="base"
     pagecolor="#ffffff"
     bordercolor="#666666"
     borderopacity="1.0"
     inkscape:pageopacity="0.0"
     inkscape:pageshadow="2"
     inkscape:zoom="0.870625"
     inkscape:cx="471.75928"
     inkscape:cy="450"
     inkscape:document-units="mm"
     inkscape:current-layer="layer1"
     showgrid="false"
     units="px"
     inkscape:window-width="1920"
     inkscape:window-height="1025"
     inkscape:window-x="0"
     inkscape:window-y="27"
     inkscape:window-maximized="1"
     inkscape:pagecheckerboard="true" />
  <metadata
     id="metadata3904">
    <rdf:RDF>
      <cc:Work
         rdf:about="">
        <dc:format>image/svg+xml</dc:format>
        <dc:type
           rdf:resource="http://purl.org/dc/dcmitype/StillImage" />
        <dc:title></dc:title>
      </cc:Work>
    </rdf:RDF>
  </metadata>
  <g
     inkscape:label="Layer 1"
     inkscape:groupmode="layer"
     id="layer1"
     transform="translate(0,-58.874945)"
     style="display:inline">
    <g
       transform="matrix(0.09616477,0,0,-0.09616477,21.48004,350.17879)"
       id="g11"
       style="display:inline">
      <g
         id="g13">
        <g
           clip-path="url(#clipPath17)"
           id="g15">
          <g
             transform="matrix(3.2400055,0,0,3.0578756,-1212.6595,-1548.8046)"
             id="g967">
            <g
               clip-path="url(#clipPath971)"
               id="g969">
              <path
                 inkscape:connector-curvature="0"
                 d="m 483.763,746.427 c 0,0 -3.466,-6.051 -3.597,-11.743 h 3.205 v -2.747 h -3.337 c 0,0 -0.261,-5.692 3.729,-12.037 h -3.238 c 0,0 -7.85,10.826 0,26.527 z"
                 id="path975"
                 style="fill:#ffffff;fill-opacity:1;fill-rule:nonzero;stroke:none" />
              <path
                 inkscape:connector-curvature="0"
                 d="m 477.44,719.909 c 0,0 -7.851,10.817 0,26.518 h -30.191 v -26.518 z"
                 id="path977"
                 style="fill:#e2001a;fill-opacity:1;fill-rule:nonzero;stroke:none" />
              <path
                 inkscape:connector-curvature="0"
                 d="m 495.9,719.896 h 3.054 v 12.035 h 3.259 v 2.748 h -3.208 c 0.132,5.692 3.599,11.743 3.599,11.743 h -3.237 c -2.49,-4.978 -3.4,-9.466 -3.482,-13.275 z"
                 id="path979"
                 style="fill:#ffffff;fill-opacity:1;fill-rule:nonzero;stroke:none" />
              <path
                 inkscape:connector-curvature="0"
                 d="m 507.037,731.931 c 0,0 -0.263,-5.691 3.728,-12.037 h -3.239 c 0,0 -3.662,5.05 -3.481,13.254 v 13.279 h 2.976 z"
                 id="path981"
                 style="fill:#ffffff;fill-opacity:1;fill-rule:nonzero;stroke:none" />
              <path
                 inkscape:connector-curvature="0"
                 d="m 513.878,719.894 c -3.991,6.346 -3.729,12.037 -3.729,12.037 l -0.017,14.496 h 30.683 l -0.024,-26.53 z"
                 id="path983"
                 style="fill:#e2001a;fill-opacity:1;fill-rule:nonzero;stroke:none" />
              <path
                 inkscape:connector-curvature="0"
                 d="m 488.773,746.427 h -3.009 v -26.532 h 3.009 z"
                 id="path985"
                 style="fill:#ffffff;fill-opacity:1;fill-rule:nonzero;stroke:none" />
              <path
                 inkscape:connector-curvature="0"
                 d="m 492.829,746.427 h -3.205 c 0,0 5.038,-6.607 0,-13.28 h 3.205 c 0,0 4.747,6.273 0,13.28"
                 id="path987"
                 style="fill:#ffffff;fill-opacity:1;fill-rule:nonzero;stroke:none" />
              <path
                 inkscape:connector-curvature="0"
                 d="m 449.72,716.309 c 0.036,-0.065 0,-0.085 -0.028,-0.085 -0.021,0 -0.092,0.013 -0.212,0 -0.346,-0.036 -0.84,-0.197 -1.073,-0.296 -0.05,-0.02 -0.092,-0.035 -0.106,-0.035 -0.015,0 -0.036,0.015 -0.036,0.043 0,0.02 0.015,0.034 0.05,0.054 0.254,0.176 0.911,0.573 0.961,0.601 0.119,0.071 0.162,0.093 0.197,0.093 0.021,0 0.036,-0.015 0.071,-0.064 0.049,-0.071 0.098,-0.17 0.176,-0.311 m -2.047,-3.01 c 0,1.102 0,1.301 -0.015,1.527 -0.014,0.239 -0.07,0.353 -0.303,0.402 -0.058,0.014 -0.177,0.022 -0.241,0.022 -0.028,0 -0.056,0.013 -0.056,0.042 0,0.043 0.035,0.058 0.113,0.058 0.318,0 0.762,-0.022 0.798,-0.022 0.049,0 1.455,0 1.618,0.007 0.133,0.007 0.247,0.022 0.302,0.035 0.036,0.007 0.064,0.034 0.099,0.034 0.022,0 0.029,-0.027 0.029,-0.062 0,-0.05 -0.035,-0.134 -0.056,-0.333 -0.008,-0.07 -0.022,-0.381 -0.036,-0.466 -0.007,-0.036 -0.021,-0.079 -0.049,-0.079 -0.042,0 -0.056,0.036 -0.056,0.093 0,0.049 -0.008,0.171 -0.043,0.255 -0.05,0.112 -0.12,0.197 -0.501,0.238 -0.121,0.015 -0.89,0.022 -0.968,0.022 -0.028,0 -0.043,-0.022 -0.043,-0.071 v -1.947 c 0,-0.05 0.008,-0.071 0.043,-0.071 0.092,0 0.96,0 1.123,0.014 0.169,0.014 0.269,0.029 0.332,0.098 0.049,0.055 0.077,0.09 0.106,0.09 0.02,0 0.035,-0.014 0.035,-0.056 0,-0.038 -0.035,-0.16 -0.056,-0.395 -0.014,-0.143 -0.028,-0.401 -0.028,-0.45 0,-0.058 0,-0.136 -0.05,-0.136 -0.035,0 -0.05,0.028 -0.05,0.065 0,0.071 0,0.142 -0.028,0.233 -0.028,0.097 -0.092,0.217 -0.367,0.245 -0.191,0.022 -0.89,0.036 -1.01,0.036 -0.035,0 -0.05,-0.021 -0.05,-0.049 v -0.622 c 0,-0.238 -0.007,-1.058 0,-1.208 0.021,-0.487 0.128,-0.579 0.82,-0.579 0.183,0 0.494,0 0.678,0.078 0.183,0.077 0.268,0.22 0.318,0.508 0.014,0.078 0.028,0.106 0.063,0.106 0.042,0 0.042,-0.056 0.042,-0.106 0,-0.056 -0.056,-0.536 -0.091,-0.682 -0.05,-0.186 -0.107,-0.186 -0.382,-0.186 -1.066,0 -1.54,0.044 -1.744,0.044 -0.036,0 -0.48,-0.021 -0.692,-0.021 -0.078,0 -0.113,0.014 -0.113,0.056 0,0.021 0.014,0.043 0.056,0.043 0.064,0 0.149,0.014 0.212,0.028 0.142,0.029 0.177,0.182 0.205,0.387 0.036,0.295 0.036,0.854 0.036,1.532 z"
                 id="path989"
                 style="fill:#ffffff;fill-opacity:1;fill-rule:nonzero;stroke:none" />
              <path
                 inkscape:connector-curvature="0"
                 d="m 452.03,710.673 c -0.685,0.616 -0.855,1.418 -0.855,2.089 0,0.474 0.163,1.301 0.791,1.93 0.424,0.422 1.067,0.755 2.154,0.755 0.283,0 0.678,-0.022 1.024,-0.085 0.269,-0.048 0.495,-0.092 0.721,-0.105 0.077,-0.007 0.091,-0.036 0.091,-0.078 0,-0.058 -0.021,-0.142 -0.035,-0.396 -0.014,-0.233 -0.014,-0.62 -0.021,-0.727 -0.007,-0.106 -0.021,-0.15 -0.064,-0.15 -0.049,0 -0.057,0.051 -0.057,0.15 0,0.276 -0.113,0.565 -0.296,0.721 -0.247,0.21 -0.79,0.402 -1.413,0.402 -0.938,0 -1.377,-0.276 -1.623,-0.515 -0.516,-0.494 -0.637,-1.123 -0.637,-1.844 0,-1.35 1.039,-2.586 2.55,-2.586 0.53,0 0.947,0.063 1.229,0.355 0.148,0.155 0.24,0.465 0.261,0.593 0.015,0.078 0.029,0.107 0.071,0.107 0.035,0 0.049,-0.05 0.049,-0.107 0,-0.051 -0.084,-0.664 -0.155,-0.906 -0.042,-0.132 -0.056,-0.146 -0.184,-0.202 -0.282,-0.114 -0.819,-0.164 -1.271,-0.164 -1.059,0 -1.772,0.263 -2.33,0.763"
                 id="path991"
                 style="fill:#ffffff;fill-opacity:1;fill-rule:nonzero;stroke:none" />
              <path
                 inkscape:connector-curvature="0"
                 d="m 457.531,712.883 c 0,1.546 0.883,2.325 2.063,2.325 1.116,0 2.147,-0.913 2.147,-2.609 0,-2.054 -1.314,-2.421 -1.95,-2.421 -1.271,0 -2.26,1.061 -2.26,2.705 m -0.671,-0.199 c 0,-1.27 0.806,-2.774 2.74,-2.774 1.703,0 2.819,1.308 2.819,2.889 0,1.644 -1.187,2.648 -2.776,2.648 -1.949,0 -2.783,-1.618 -2.783,-2.763"
                 id="path993"
                 style="fill:#ffffff;fill-opacity:1;fill-rule:nonzero;stroke:none" />
              <path
                 inkscape:connector-curvature="0"
                 d="m 464.721,712.042 c 0,-1.037 0.028,-1.49 0.155,-1.618 0.114,-0.112 0.297,-0.162 0.848,-0.162 0.374,0 0.684,0.007 0.854,0.213 0.092,0.114 0.163,0.291 0.184,0.423 0.007,0.056 0.021,0.091 0.064,0.091 0.035,0 0.041,-0.028 0.041,-0.106 0,-0.076 -0.049,-0.501 -0.105,-0.705 -0.05,-0.162 -0.07,-0.191 -0.445,-0.191 -1.017,0 -1.483,0.044 -1.893,0.044 -0.063,0 -0.48,-0.021 -0.692,-0.021 -0.077,0 -0.113,0.014 -0.113,0.056 0,0.021 0.014,0.043 0.057,0.043 0.063,0 0.148,0.014 0.212,0.028 0.141,0.029 0.175,0.182 0.204,0.387 0.035,0.295 0.035,0.854 0.035,1.532 v 1.243 c 0,1.102 0,1.301 -0.013,1.527 -0.015,0.239 -0.071,0.353 -0.304,0.402 -0.057,0.014 -0.177,0.022 -0.24,0.022 -0.029,0 -0.057,0.013 -0.057,0.042 0,0.043 0.035,0.058 0.113,0.058 0.318,0 0.762,-0.022 0.798,-0.022 0.036,0 0.551,0.022 0.763,0.022 0.077,0 0.113,-0.015 0.113,-0.058 0,-0.029 -0.028,-0.042 -0.056,-0.042 -0.05,0 -0.149,-0.008 -0.234,-0.022 -0.205,-0.035 -0.261,-0.156 -0.275,-0.402 -0.014,-0.226 -0.014,-0.425 -0.014,-1.527 z"
                 id="path995"
                 style="fill:#ffffff;fill-opacity:1;fill-rule:nonzero;stroke:none" />
              <path
                 inkscape:connector-curvature="0"
                 d="m 468.308,713.299 c 0,1.102 0,1.301 -0.014,1.527 -0.014,0.239 -0.07,0.353 -0.303,0.402 -0.057,0.014 -0.176,0.022 -0.241,0.022 -0.028,0 -0.056,0.013 -0.056,0.042 0,0.043 0.035,0.058 0.113,0.058 0.318,0 0.763,-0.022 0.798,-0.022 0.049,0 1.455,0 1.618,0.007 0.134,0.007 0.247,0.022 0.303,0.035 0.036,0.007 0.063,0.034 0.099,0.034 0.021,0 0.028,-0.027 0.028,-0.062 0,-0.05 -0.035,-0.134 -0.056,-0.333 -0.008,-0.07 -0.021,-0.381 -0.035,-0.466 -0.008,-0.036 -0.022,-0.079 -0.05,-0.079 -0.042,0 -0.056,0.036 -0.056,0.093 0,0.049 -0.007,0.171 -0.043,0.255 -0.05,0.112 -0.12,0.197 -0.502,0.238 -0.12,0.015 -0.889,0.022 -0.967,0.022 -0.028,0 -0.043,-0.022 -0.043,-0.071 v -1.947 c 0,-0.05 0.008,-0.071 0.043,-0.071 0.091,0 0.961,0 1.123,0.014 0.17,0.014 0.269,0.029 0.332,0.098 0.05,0.055 0.078,0.09 0.105,0.09 0.022,0 0.036,-0.014 0.036,-0.056 0,-0.038 -0.036,-0.16 -0.056,-0.395 -0.014,-0.143 -0.028,-0.401 -0.028,-0.45 0,-0.058 0,-0.136 -0.05,-0.136 -0.035,0 -0.049,0.028 -0.049,0.065 0,0.071 0,0.142 -0.028,0.233 -0.029,0.097 -0.092,0.217 -0.368,0.245 -0.191,0.022 -0.89,0.036 -1.01,0.036 -0.035,0 -0.05,-0.021 -0.05,-0.049 v -0.622 c 0,-0.238 -0.006,-1.058 0,-1.208 0.022,-0.487 0.128,-0.579 0.82,-0.579 0.184,0 0.494,0 0.678,0.078 0.184,0.077 0.268,0.22 0.318,0.508 0.014,0.078 0.028,0.106 0.064,0.106 0.042,0 0.042,-0.056 0.042,-0.106 0,-0.056 -0.057,-0.536 -0.092,-0.682 -0.049,-0.186 -0.106,-0.186 -0.382,-0.186 -1.066,0 -1.539,0.044 -1.744,0.044 -0.035,0 -0.48,-0.021 -0.692,-0.021 -0.078,0 -0.113,0.014 -0.113,0.056 0,0.021 0.015,0.043 0.057,0.043 0.063,0 0.148,0.014 0.211,0.028 0.141,0.029 0.177,0.182 0.205,0.387 0.035,0.295 0.035,0.854 0.035,1.532 z"
                 id="path997"
                 style="fill:#ffffff;fill-opacity:1;fill-rule:nonzero;stroke:none" />
              <path
                 inkscape:connector-curvature="0"
                 d="m 474.912,713.299 c 0,1.102 0,1.301 -0.014,1.527 -0.014,0.239 -0.071,0.353 -0.304,0.402 -0.056,0.014 -0.176,0.022 -0.24,0.022 -0.028,0 -0.057,0.013 -0.057,0.042 0,0.043 0.036,0.058 0.113,0.058 0.318,0 0.742,-0.022 0.799,-0.022 0.154,0 0.564,0.022 0.889,0.022 0.884,0 1.201,-0.3 1.314,-0.404 0.156,-0.148 0.353,-0.467 0.353,-0.839 0,-1.005 -0.734,-1.682 -1.737,-1.682 -0.036,0 -0.113,0 -0.149,0.008 -0.035,0 -0.077,0.013 -0.077,0.049 0,0.054 0.042,0.061 0.19,0.061 0.685,0 1.222,0.504 1.222,1.153 0,0.232 -0.021,0.705 -0.395,1.087 -0.375,0.381 -0.805,0.353 -0.968,0.353 -0.12,0 -0.24,-0.015 -0.303,-0.043 -0.043,-0.014 -0.057,-0.063 -0.057,-0.133 v -2.904 c 0,-0.678 0,-1.237 0.035,-1.532 0.022,-0.205 0.063,-0.358 0.276,-0.387 0.099,-0.014 0.254,-0.028 0.318,-0.028 0.042,0 0.056,-0.022 0.056,-0.043 0,-0.035 -0.036,-0.056 -0.113,-0.056 -0.389,0 -0.833,0.021 -0.869,0.021 -0.021,0 -0.466,-0.021 -0.677,-0.021 -0.078,0 -0.114,0.014 -0.114,0.056 0,0.021 0.015,0.043 0.056,0.043 0.064,0 0.149,0.014 0.213,0.028 0.141,0.029 0.176,0.182 0.204,0.387 0.036,0.295 0.036,0.854 0.036,1.532 z"
                 id="path999"
                 style="fill:#ffffff;fill-opacity:1;fill-rule:nonzero;stroke:none" />
              <path
                 inkscape:connector-curvature="0"
                 d="m 479.312,712.883 c 0,1.546 0.883,2.325 2.062,2.325 1.116,0 2.147,-0.913 2.147,-2.609 0,-2.054 -1.314,-2.421 -1.949,-2.421 -1.272,0 -2.26,1.061 -2.26,2.705 m -0.672,-0.199 c 0,-1.27 0.805,-2.774 2.741,-2.774 1.702,0 2.818,1.308 2.818,2.889 0,1.644 -1.187,2.648 -2.775,2.648 -1.949,0 -2.784,-1.618 -2.784,-2.763"
                 id="path1001"
                 style="fill:#ffffff;fill-opacity:1;fill-rule:nonzero;stroke:none" />
              <path
                 inkscape:connector-curvature="0"
                 d="m 486.36,712.042 c 0,-1.037 0.028,-1.49 0.155,-1.618 0.113,-0.112 0.297,-0.162 0.848,-0.162 0.375,0 0.685,0.007 0.854,0.213 0.093,0.114 0.163,0.291 0.183,0.423 0.008,0.056 0.022,0.091 0.065,0.091 0.034,0 0.042,-0.028 0.042,-0.106 0,-0.076 -0.049,-0.501 -0.107,-0.705 -0.049,-0.162 -0.069,-0.191 -0.444,-0.191 -1.017,0 -1.483,0.044 -1.893,0.044 -0.063,0 -0.48,-0.021 -0.692,-0.021 -0.078,0 -0.113,0.014 -0.113,0.056 0,0.021 0.014,0.043 0.056,0.043 0.065,0 0.149,0.014 0.213,0.028 0.141,0.029 0.177,0.182 0.204,0.387 0.036,0.295 0.036,0.854 0.036,1.532 v 1.243 c 0,1.102 0,1.301 -0.014,1.527 -0.015,0.239 -0.071,0.353 -0.304,0.402 -0.056,0.014 -0.177,0.022 -0.24,0.022 -0.028,0 -0.057,0.013 -0.057,0.042 0,0.043 0.035,0.058 0.113,0.058 0.318,0 0.763,-0.022 0.798,-0.022 0.036,0 0.551,0.022 0.763,0.022 0.078,0 0.113,-0.015 0.113,-0.058 0,-0.029 -0.029,-0.042 -0.056,-0.042 -0.05,0 -0.149,-0.008 -0.234,-0.022 -0.204,-0.035 -0.261,-0.156 -0.275,-0.402 -0.014,-0.226 -0.014,-0.425 -0.014,-1.527 z"
                 id="path1003"
                 style="fill:#ffffff;fill-opacity:1;fill-rule:nonzero;stroke:none" />
              <path
                 inkscape:connector-curvature="0"
                 d="m 490.591,711.839 c 0,0.381 -0.071,0.536 -0.163,0.739 -0.049,0.113 -0.996,1.669 -1.242,2.035 -0.178,0.262 -0.354,0.437 -0.482,0.523 -0.105,0.072 -0.239,0.114 -0.304,0.114 -0.035,0 -0.069,0.013 -0.069,0.049 0,0.029 0.027,0.051 0.091,0.051 0.134,0 0.664,-0.022 0.699,-0.022 0.05,0 0.318,0.022 0.593,0.022 0.079,0 0.093,-0.022 0.093,-0.051 0,-0.029 -0.043,-0.036 -0.107,-0.064 -0.055,-0.027 -0.091,-0.071 -0.091,-0.126 0,-0.087 0.036,-0.17 0.091,-0.277 0.113,-0.204 1.173,-2.026 1.3,-2.233 0.134,0.298 1.031,1.844 1.172,2.078 0.093,0.149 0.12,0.269 0.12,0.36 0,0.099 -0.027,0.177 -0.113,0.198 -0.063,0.022 -0.105,0.035 -0.105,0.072 0,0.028 0.042,0.043 0.113,0.043 0.183,0 0.409,-0.022 0.466,-0.022 0.042,0 0.55,0.022 0.684,0.022 0.05,0 0.093,-0.015 0.093,-0.043 0,-0.037 -0.036,-0.057 -0.093,-0.057 -0.077,0 -0.211,-0.029 -0.325,-0.101 -0.141,-0.084 -0.218,-0.169 -0.374,-0.357 -0.232,-0.285 -1.222,-1.944 -1.349,-2.249 -0.105,-0.253 -0.105,-0.473 -0.105,-0.704 v -0.608 c 0,-0.113 0,-0.412 0.021,-0.707 0.014,-0.205 0.077,-0.358 0.29,-0.387 0.098,-0.014 0.253,-0.028 0.317,-0.028 0.042,0 0.057,-0.022 0.057,-0.043 0,-0.035 -0.035,-0.056 -0.114,-0.056 -0.387,0 -0.832,0.021 -0.868,0.021 -0.036,0 -0.481,-0.021 -0.692,-0.021 -0.078,0 -0.113,0.014 -0.113,0.056 0,0.021 0.014,0.043 0.056,0.043 0.064,0 0.148,0.014 0.212,0.028 0.142,0.029 0.205,0.182 0.219,0.387 0.022,0.295 0.022,0.594 0.022,0.707 z"
                 id="path1005"
                 style="fill:#ffffff;fill-opacity:1;fill-rule:nonzero;stroke:none" />
              <path
                 inkscape:connector-curvature="0"
                 d="m 496.071,712.056 c 0,-0.678 0,-1.237 0.034,-1.532 0.021,-0.205 0.064,-0.358 0.276,-0.387 0.1,-0.014 0.255,-0.028 0.317,-0.028 0.043,0 0.056,-0.022 0.056,-0.043 0,-0.035 -0.035,-0.056 -0.111,-0.056 -0.389,0 -0.832,0.021 -0.867,0.021 -0.037,0 -0.481,-0.021 -0.694,-0.021 -0.079,0 -0.114,0.014 -0.114,0.056 0,0.021 0.014,0.043 0.056,0.043 0.065,0 0.15,0.014 0.214,0.028 0.14,0.029 0.177,0.182 0.204,0.387 0.036,0.295 0.036,0.854 0.036,1.532 v 2.988 l -1.047,-0.014 c -0.437,-0.008 -0.606,-0.057 -0.718,-0.226 -0.079,-0.12 -0.1,-0.169 -0.121,-0.219 -0.021,-0.057 -0.042,-0.071 -0.071,-0.071 -0.021,0 -0.036,0.021 -0.036,0.064 0,0.071 0.142,0.679 0.156,0.736 0.014,0.043 0.043,0.133 0.072,0.133 0.048,0 0.119,-0.07 0.311,-0.085 0.203,-0.02 0.471,-0.034 0.557,-0.034 h 2.648 c 0.452,0 0.641,0.069 0.698,0.069 0.036,0 0.036,-0.04 0.036,-0.083 0,-0.213 -0.021,-0.701 -0.021,-0.779 0,-0.063 -0.021,-0.092 -0.05,-0.092 -0.035,0 -0.049,0.021 -0.057,0.121 l -0.007,0.078 c -0.026,0.211 -0.188,0.373 -0.866,0.388 l -0.891,0.014 z"
                 id="path1007"
                 style="fill:#ffffff;fill-opacity:1;fill-rule:nonzero;stroke:none" />
              <path
                 inkscape:connector-curvature="0"
                 d="m 499.446,713.299 c 0,1.102 0,1.301 -0.013,1.527 -0.014,0.239 -0.07,0.353 -0.305,0.402 -0.056,0.014 -0.175,0.022 -0.24,0.022 -0.028,0 -0.055,0.013 -0.055,0.042 0,0.043 0.033,0.058 0.112,0.058 0.317,0 0.762,-0.022 0.797,-0.022 0.051,0 1.455,0 1.618,0.007 0.134,0.007 0.248,0.022 0.305,0.035 0.036,0.007 0.064,0.034 0.099,0.034 0.02,0 0.026,-0.027 0.026,-0.062 0,-0.05 -0.034,-0.134 -0.054,-0.333 -0.007,-0.07 -0.021,-0.381 -0.035,-0.466 -0.009,-0.036 -0.021,-0.079 -0.05,-0.079 -0.043,0 -0.058,0.036 -0.058,0.093 0,0.049 -0.006,0.171 -0.042,0.255 -0.049,0.112 -0.12,0.197 -0.501,0.238 -0.12,0.015 -0.891,0.022 -0.968,0.022 -0.029,0 -0.043,-0.022 -0.043,-0.071 v -1.947 c 0,-0.05 0.007,-0.071 0.043,-0.071 0.09,0 0.961,0 1.123,0.014 0.169,0.014 0.268,0.029 0.332,0.098 0.05,0.055 0.078,0.09 0.107,0.09 0.021,0 0.036,-0.014 0.036,-0.056 0,-0.038 -0.036,-0.16 -0.058,-0.395 -0.014,-0.143 -0.029,-0.401 -0.029,-0.45 0,-0.058 0,-0.136 -0.048,-0.136 -0.037,0 -0.051,0.028 -0.051,0.065 0,0.071 0,0.142 -0.027,0.233 -0.029,0.097 -0.093,0.217 -0.368,0.245 -0.19,0.022 -0.89,0.036 -1.009,0.036 -0.037,0 -0.051,-0.021 -0.051,-0.049 v -0.622 c 0,-0.238 -0.006,-1.058 0,-1.208 0.022,-0.487 0.127,-0.579 0.819,-0.579 0.185,0 0.493,0 0.679,0.078 0.185,0.077 0.269,0.22 0.318,0.508 0.014,0.078 0.029,0.106 0.063,0.106 0.042,0 0.042,-0.056 0.042,-0.106 0,-0.056 -0.057,-0.536 -0.091,-0.682 -0.049,-0.186 -0.105,-0.186 -0.382,-0.186 -1.066,0 -1.538,0.044 -1.745,0.044 -0.035,0 -0.48,-0.021 -0.692,-0.021 -0.076,0 -0.111,0.014 -0.111,0.056 0,0.021 0.014,0.043 0.055,0.043 0.063,0 0.148,0.014 0.212,0.028 0.143,0.029 0.178,0.182 0.206,0.387 0.034,0.295 0.034,0.854 0.034,1.532 z"
                 id="path1009"
                 style="fill:#ffffff;fill-opacity:1;fill-rule:nonzero;stroke:none" />
              <path
                 inkscape:connector-curvature="0"
                 d="m 503.803,710.673 c -0.686,0.616 -0.854,1.418 -0.854,2.089 0,0.474 0.161,1.301 0.789,1.93 0.426,0.422 1.068,0.755 2.158,0.755 0.281,0 0.675,-0.022 1.024,-0.085 0.265,-0.048 0.493,-0.092 0.72,-0.105 0.075,-0.007 0.09,-0.036 0.09,-0.078 0,-0.058 -0.022,-0.142 -0.034,-0.396 -0.016,-0.233 -0.016,-0.62 -0.022,-0.727 -0.006,-0.106 -0.02,-0.15 -0.061,-0.15 -0.051,0 -0.058,0.051 -0.058,0.15 0,0.276 -0.113,0.565 -0.297,0.721 -0.246,0.21 -0.79,0.402 -1.411,0.402 -0.941,0 -1.378,-0.276 -1.627,-0.515 -0.517,-0.494 -0.635,-1.123 -0.635,-1.844 0,-1.35 1.039,-2.586 2.549,-2.586 0.529,0 0.947,0.063 1.228,0.355 0.151,0.155 0.242,0.465 0.264,0.593 0.014,0.078 0.028,0.107 0.07,0.107 0.034,0 0.047,-0.05 0.047,-0.107 0,-0.051 -0.082,-0.664 -0.153,-0.906 -0.042,-0.132 -0.056,-0.146 -0.185,-0.202 -0.283,-0.114 -0.82,-0.164 -1.271,-0.164 -1.06,0 -1.773,0.263 -2.331,0.763"
                 id="path1011"
                 style="fill:#ffffff;fill-opacity:1;fill-rule:nonzero;stroke:none" />
              <path
                 inkscape:connector-curvature="0"
                 d="m 513.705,712.056 c 0,-0.678 0,-1.237 0.035,-1.532 0.022,-0.205 0.065,-0.358 0.277,-0.387 0.097,-0.014 0.252,-0.028 0.316,-0.028 0.044,0 0.057,-0.022 0.057,-0.043 0,-0.035 -0.036,-0.056 -0.113,-0.056 -0.388,0 -0.832,0.021 -0.867,0.021 -0.035,0 -0.482,-0.021 -0.694,-0.021 -0.077,0 -0.112,0.014 -0.112,0.056 0,0.021 0.013,0.043 0.056,0.043 0.064,0 0.15,0.014 0.213,0.028 0.14,0.029 0.175,0.182 0.203,0.387 0.036,0.295 0.036,0.854 0.036,1.532 v 0.743 c 0,0.028 -0.022,0.042 -0.043,0.042 h -2.995 c -0.021,0 -0.041,-0.007 -0.041,-0.042 v -0.743 c 0,-0.678 0,-1.237 0.034,-1.532 0.021,-0.205 0.064,-0.358 0.277,-0.387 0.1,-0.014 0.254,-0.028 0.316,-0.028 0.043,0 0.058,-0.022 0.058,-0.043 0,-0.035 -0.036,-0.056 -0.114,-0.056 -0.387,0 -0.833,0.021 -0.868,0.021 -0.035,0 -0.479,-0.021 -0.691,-0.021 -0.079,0 -0.115,0.014 -0.115,0.056 0,0.021 0.015,0.043 0.057,0.043 0.064,0 0.148,0.014 0.212,0.028 0.143,0.029 0.179,0.182 0.207,0.387 0.034,0.295 0.034,0.854 0.034,1.532 v 1.243 c 0,1.102 0,1.301 -0.014,1.527 -0.015,0.239 -0.07,0.353 -0.304,0.402 -0.056,0.014 -0.177,0.022 -0.241,0.022 -0.028,0 -0.055,0.013 -0.055,0.042 0,0.043 0.034,0.058 0.111,0.058 0.32,0 0.764,-0.022 0.799,-0.022 0.035,0 0.481,0.022 0.693,0.022 0.079,0 0.113,-0.015 0.113,-0.058 0,-0.029 -0.028,-0.042 -0.056,-0.042 -0.049,0 -0.092,-0.008 -0.178,-0.022 -0.191,-0.035 -0.247,-0.156 -0.263,-0.402 -0.012,-0.226 -0.012,-0.425 -0.012,-1.527 v -0.149 c 0,-0.034 0.02,-0.04 0.041,-0.04 h 2.995 c 0.021,0 0.043,0.006 0.043,0.04 v 0.149 c 0,1.102 0,1.301 -0.015,1.527 -0.014,0.239 -0.07,0.353 -0.301,0.402 -0.058,0.014 -0.179,0.022 -0.241,0.022 -0.03,0 -0.059,0.013 -0.059,0.042 0,0.043 0.036,0.058 0.115,0.058 0.317,0 0.764,-0.022 0.799,-0.022 0.035,0 0.479,0.022 0.69,0.022 0.078,0 0.113,-0.015 0.113,-0.058 0,-0.029 -0.028,-0.042 -0.057,-0.042 -0.049,0 -0.09,-0.008 -0.173,-0.022 -0.193,-0.035 -0.251,-0.156 -0.264,-0.402 -0.014,-0.226 -0.014,-0.425 -0.014,-1.527 z"
                 id="path1013"
                 style="fill:#ffffff;fill-opacity:1;fill-rule:nonzero;stroke:none" />
              <path
                 inkscape:connector-curvature="0"
                 d="m 516.411,710.969 c 0.014,-0.58 0.082,-0.762 0.274,-0.818 0.135,-0.036 0.291,-0.042 0.353,-0.042 0.035,0 0.055,-0.014 0.055,-0.043 0,-0.042 -0.041,-0.056 -0.124,-0.056 -0.404,0 -0.684,0.021 -0.749,0.021 -0.064,0 -0.361,-0.021 -0.678,-0.021 -0.072,0 -0.114,0.006 -0.114,0.056 0,0.029 0.021,0.043 0.056,0.043 0.058,0 0.185,0.006 0.292,0.042 0.175,0.049 0.21,0.252 0.21,0.896 l 0.008,4.046 c 0,0.277 0.021,0.354 0.077,0.354 0.057,0 0.178,-0.155 0.249,-0.226 0.105,-0.12 1.158,-1.257 2.245,-2.422 0.7,-0.75 1.468,-1.609 1.695,-1.845 l -0.079,3.589 c -0.006,0.458 -0.057,0.615 -0.274,0.671 -0.127,0.028 -0.29,0.036 -0.347,0.036 -0.049,0 -0.057,0.02 -0.057,0.049 0,0.043 0.057,0.051 0.141,0.051 0.318,0 0.658,-0.022 0.736,-0.022 0.079,0 0.311,0.022 0.6,0.022 0.078,0 0.127,-0.008 0.127,-0.051 0,-0.029 -0.028,-0.049 -0.076,-0.049 -0.037,0 -0.086,0 -0.171,-0.022 -0.234,-0.049 -0.263,-0.206 -0.263,-0.628 l -0.014,-4.139 c 0,-0.467 -0.014,-0.501 -0.063,-0.501 -0.055,0 -0.139,0.078 -0.516,0.452 -0.076,0.071 -1.094,1.107 -1.841,1.913 -0.82,0.882 -1.619,1.773 -1.843,2.028 z"
                 id="path1015"
                 style="fill:#ffffff;fill-opacity:1;fill-rule:nonzero;stroke:none" />
              <path
                 inkscape:connector-curvature="0"
                 d="m 523.5,712.056 c 0,-0.678 0,-1.237 0.036,-1.532 0.021,-0.205 0.063,-0.358 0.277,-0.387 0.098,-0.014 0.253,-0.028 0.316,-0.028 0.042,0 0.056,-0.022 0.056,-0.043 0,-0.035 -0.035,-0.056 -0.112,-0.056 -0.389,0 -0.833,0.021 -0.868,0.021 -0.036,0 -0.48,-0.021 -0.693,-0.021 -0.079,0 -0.114,0.014 -0.114,0.056 0,0.021 0.014,0.043 0.056,0.043 0.065,0 0.15,0.014 0.214,0.028 0.14,0.029 0.177,0.182 0.204,0.387 0.034,0.295 0.034,0.854 0.034,1.532 v 1.243 c 0,1.102 0,1.301 -0.013,1.527 -0.013,0.239 -0.085,0.36 -0.239,0.395 -0.078,0.021 -0.171,0.029 -0.221,0.029 -0.028,0 -0.056,0.013 -0.056,0.042 0,0.043 0.035,0.058 0.113,0.058 0.235,0 0.679,-0.022 0.715,-0.022 0.035,0 0.479,0.022 0.693,0.022 0.076,0 0.112,-0.015 0.112,-0.058 0,-0.029 -0.03,-0.042 -0.057,-0.042 -0.049,0 -0.091,-0.008 -0.175,-0.022 -0.194,-0.035 -0.25,-0.156 -0.264,-0.402 -0.014,-0.226 -0.014,-0.425 -0.014,-1.527 z"
                 id="path1017"
                 style="fill:#ffffff;fill-opacity:1;fill-rule:nonzero;stroke:none" />
              <path
                 inkscape:connector-curvature="0"
                 d="m 525.88,712.883 c 0,1.546 0.885,2.325 2.064,2.325 1.115,0 2.146,-0.913 2.146,-2.609 0,-2.054 -1.314,-2.421 -1.95,-2.421 -1.271,0 -2.26,1.061 -2.26,2.705 m 4.387,-3.389 c 1.144,-0.629 2.053,-0.948 2.91,-0.948 1.045,0 1.836,0.305 2.238,0.488 0.044,0.022 0.058,0.042 0.058,0.07 0,0.021 -0.014,0.042 -0.043,0.042 -0.022,0 -0.057,-0.014 -0.1,-0.029 -0.485,-0.195 -1.037,-0.273 -1.391,-0.273 -0.353,0 -1.425,0.036 -2.973,0.83 l -1.449,0.75 c 0.467,0.308 1.252,1.131 1.252,2.375 0,1.637 -1.187,2.648 -2.775,2.648 -1.95,0 -2.784,-1.618 -2.784,-2.763 0,-1.27 0.805,-2.774 2.763,-2.774 0.372,0 0.853,0.106 1.107,0.241 z"
                 id="path1019"
                 style="fill:#ffffff;fill-opacity:1;fill-rule:nonzero;stroke:none" />
              <g
                 id="g1021"
                 style="fill:#ffffff;fill-opacity:1">
                <g
                   clip-path="url(#clipPath1025)"
                   id="g1023"
                   style="fill:#ffffff;fill-opacity:1">
                  <path
                     inkscape:connector-curvature="0"
                     d="m 532.104,713.299 c 0,1.102 0,1.301 -0.014,1.527 -0.014,0.239 -0.071,0.353 -0.306,0.402 -0.056,0.014 -0.176,0.022 -0.239,0.022 -0.027,0 -0.057,0.013 -0.057,0.042 0,0.043 0.037,0.058 0.113,0.058 0.319,0 0.749,-0.022 0.813,-0.022 0.064,0 0.485,0.022 0.699,0.022 0.079,0 0.113,-0.015 0.113,-0.058 0,-0.029 -0.029,-0.042 -0.055,-0.042 -0.051,0 -0.093,-0.008 -0.179,-0.022 -0.191,-0.027 -0.246,-0.156 -0.26,-0.402 -0.014,-0.226 -0.014,-0.425 -0.014,-1.527 v -0.988 c 0,-1.016 0.225,-1.456 0.531,-1.744 0.344,-0.326 0.663,-0.389 1.065,-0.389 0.43,0 0.853,0.204 1.108,0.51 0.325,0.401 0.409,1.002 0.409,1.73 v 0.881 c 0,1.102 0,1.301 -0.014,1.527 -0.014,0.239 -0.07,0.353 -0.302,0.402 -0.056,0.014 -0.177,0.022 -0.241,0.022 -0.03,0 -0.057,0.013 -0.057,0.042 0,0.043 0.034,0.058 0.113,0.058 0.319,0 0.708,-0.022 0.75,-0.022 0.049,0 0.38,0.022 0.594,0.022 0.077,0 0.111,-0.015 0.111,-0.058 0,-0.029 -0.027,-0.042 -0.055,-0.042 -0.049,0 -0.092,0 -0.178,-0.022 -0.192,-0.035 -0.247,-0.156 -0.261,-0.402 -0.015,-0.226 -0.015,-0.425 -0.015,-1.527 v -0.756 c 0,-0.76 -0.084,-1.61 -0.65,-2.111 -0.507,-0.452 -1.037,-0.522 -1.455,-0.522 -0.238,0 -0.952,0.028 -1.453,0.502 -0.347,0.332 -0.614,0.827 -0.614,1.857 z"
                     id="path1029"
                     style="fill:#ffffff;fill-opacity:1;fill-rule:nonzero;stroke:none" />
                  <path
                     inkscape:connector-curvature="0"
                     d="m 538.374,713.299 c 0,1.102 0,1.301 -0.014,1.527 -0.014,0.239 -0.07,0.353 -0.304,0.402 -0.055,0.014 -0.175,0.022 -0.239,0.022 -0.029,0 -0.057,0.013 -0.057,0.042 0,0.043 0.035,0.058 0.113,0.058 0.317,0 0.763,-0.022 0.798,-0.022 0.048,0 1.455,0 1.617,0.007 0.134,0.007 0.246,0.022 0.304,0.035 0.035,0.007 0.064,0.034 0.099,0.034 0.023,0 0.028,-0.027 0.028,-0.062 0,-0.05 -0.035,-0.134 -0.057,-0.333 -0.006,-0.07 -0.021,-0.381 -0.035,-0.466 -0.007,-0.036 -0.021,-0.079 -0.049,-0.079 -0.044,0 -0.058,0.036 -0.058,0.093 0,0.049 -0.006,0.171 -0.042,0.255 -0.048,0.112 -0.12,0.197 -0.5,0.238 -0.12,0.015 -0.89,0.022 -0.968,0.022 -0.027,0 -0.043,-0.022 -0.043,-0.071 v -1.947 c 0,-0.05 0.009,-0.071 0.043,-0.071 0.091,0 0.959,0 1.123,0.014 0.169,0.014 0.268,0.029 0.33,0.098 0.051,0.055 0.078,0.09 0.107,0.09 0.022,0 0.036,-0.014 0.036,-0.056 0,-0.038 -0.036,-0.16 -0.057,-0.395 -0.015,-0.143 -0.029,-0.401 -0.029,-0.45 0,-0.058 0,-0.136 -0.049,-0.136 -0.034,0 -0.049,0.028 -0.049,0.065 0,0.071 0,0.142 -0.027,0.233 -0.03,0.097 -0.093,0.217 -0.368,0.245 -0.19,0.022 -0.89,0.036 -1.009,0.036 -0.035,0 -0.051,-0.021 -0.051,-0.049 v -0.622 c 0,-0.238 -0.005,-1.058 0,-1.208 0.021,-0.487 0.129,-0.579 0.819,-0.579 0.183,0 0.495,0 0.677,0.078 0.186,0.077 0.272,0.22 0.32,0.508 0.015,0.078 0.029,0.106 0.063,0.106 0.043,0 0.043,-0.056 0.043,-0.106 0,-0.056 -0.056,-0.536 -0.091,-0.682 -0.049,-0.186 -0.107,-0.186 -0.383,-0.186 -1.068,0 -1.539,0.044 -1.744,0.044 -0.035,0 -0.481,-0.021 -0.692,-0.021 -0.077,0 -0.112,0.014 -0.112,0.056 0,0.021 0.014,0.043 0.056,0.043 0.064,0 0.148,0.014 0.209,0.028 0.143,0.029 0.178,0.182 0.207,0.387 0.035,0.295 0.035,0.854 0.035,1.532 z"
                     id="path1031"
                     style="fill:#ffffff;fill-opacity:1;fill-rule:nonzero;stroke:none" />
                </g>
              </g>
              <path
                 inkscape:connector-curvature="0"
                 d="m 447.725,704.826 c 0,1.101 0,1.298 -0.014,1.525 -0.014,0.241 -0.07,0.352 -0.304,0.401 -0.056,0.014 -0.176,0.021 -0.24,0.021 -0.028,0 -0.056,0.014 -0.056,0.042 0,0.044 0.035,0.058 0.113,0.058 0.318,0 0.762,-0.023 0.798,-0.023 0.141,0 1.574,0 1.737,0.009 0.134,0.007 0.247,0.007 0.311,0.028 0.043,0.014 0.071,0.042 0.099,0.042 0.029,0 0.042,-0.028 0.042,-0.063 0,-0.051 -0.035,-0.135 -0.057,-0.331 -0.006,-0.071 -0.02,-0.383 -0.035,-0.465 -0.006,-0.035 -0.021,-0.079 -0.056,-0.079 -0.035,0 -0.049,0.035 -0.049,0.086 0,0.055 -0.022,0.174 -0.064,0.266 -0.042,0.092 -0.205,0.22 -0.48,0.227 l -1.088,0.022 c -0.042,0 -0.064,-0.022 -0.064,-0.079 v -1.95 c 0,-0.044 0.008,-0.063 0.05,-0.063 l 0.904,0.007 c 0.12,0 0.219,0 0.318,0.007 0.169,0.014 0.261,0.035 0.324,0.127 0.029,0.037 0.05,0.072 0.078,0.072 0.028,0 0.036,-0.022 0.036,-0.058 0,-0.042 -0.036,-0.164 -0.057,-0.393 -0.014,-0.142 -0.028,-0.427 -0.028,-0.476 0,-0.061 0,-0.133 -0.05,-0.133 -0.035,0 -0.049,0.029 -0.049,0.064 -0.007,0.069 -0.014,0.167 -0.042,0.253 -0.036,0.099 -0.148,0.227 -0.368,0.255 -0.176,0.021 -0.946,0.021 -1.066,0.021 -0.036,0 -0.05,-0.012 -0.05,-0.063 v -0.601 c 0,-0.677 0,-1.235 0.036,-1.533 0.021,-0.204 0.063,-0.36 0.275,-0.388 0.099,-0.015 0.255,-0.029 0.318,-0.029 0.042,0 0.056,-0.021 0.056,-0.042 0,-0.037 -0.035,-0.056 -0.113,-0.056 -0.388,0 -0.833,0.019 -0.868,0.019 -0.036,0 -0.48,-0.019 -0.692,-0.019 -0.079,0 -0.113,0.012 -0.113,0.056 0,0.021 0.014,0.042 0.056,0.042 0.064,0 0.148,0.014 0.213,0.029 0.14,0.028 0.176,0.184 0.204,0.388 0.035,0.298 0.035,0.856 0.035,1.533 z"
                 id="path1033"
                 style="fill:#ffffff;fill-opacity:1;fill-rule:nonzero;stroke:none" />
              <path
                 inkscape:connector-curvature="0"
                 d="m 453.954,707.835 c 0.035,-0.064 0,-0.086 -0.028,-0.086 -0.021,0 -0.092,0.015 -0.212,0 -0.346,-0.035 -0.84,-0.198 -1.073,-0.298 -0.05,-0.021 -0.092,-0.035 -0.106,-0.035 -0.014,0 -0.036,0.014 -0.036,0.043 0,0.021 0.014,0.036 0.05,0.057 0.254,0.177 0.911,0.572 0.961,0.6 0.119,0.071 0.162,0.093 0.197,0.093 0.021,0 0.035,-0.015 0.07,-0.065 0.05,-0.07 0.099,-0.17 0.177,-0.309 m -2.048,-3.009 c 0,1.101 0,1.298 -0.014,1.525 -0.014,0.241 -0.071,0.352 -0.303,0.401 -0.058,0.014 -0.177,0.021 -0.241,0.021 -0.028,0 -0.056,0.014 -0.056,0.042 0,0.044 0.035,0.058 0.113,0.058 0.318,0 0.762,-0.023 0.798,-0.023 0.049,0 1.455,0 1.618,0.009 0.133,0.007 0.246,0.021 0.303,0.035 0.035,0.007 0.064,0.035 0.099,0.035 0.021,0 0.028,-0.028 0.028,-0.063 0,-0.051 -0.035,-0.135 -0.056,-0.331 -0.007,-0.071 -0.022,-0.383 -0.036,-0.465 -0.007,-0.035 -0.021,-0.079 -0.049,-0.079 -0.043,0 -0.057,0.035 -0.057,0.092 0,0.049 -0.007,0.168 -0.042,0.253 -0.05,0.115 -0.121,0.199 -0.501,0.241 -0.121,0.015 -0.89,0.022 -0.968,0.022 -0.029,0 -0.043,-0.022 -0.043,-0.071 v -1.95 c 0,-0.05 0.007,-0.071 0.043,-0.071 0.092,0 0.96,0 1.123,0.012 0.169,0.016 0.268,0.03 0.331,0.1 0.05,0.059 0.078,0.094 0.107,0.094 0.021,0 0.035,-0.014 0.035,-0.058 0,-0.042 -0.035,-0.164 -0.057,-0.393 -0.014,-0.142 -0.028,-0.406 -0.028,-0.454 0,-0.056 0,-0.132 -0.05,-0.132 -0.034,0 -0.049,0.028 -0.049,0.063 0,0.069 0,0.138 -0.028,0.231 -0.028,0.099 -0.092,0.22 -0.367,0.248 -0.191,0.021 -0.89,0.035 -1.01,0.035 -0.036,0 -0.05,-0.019 -0.05,-0.049 v -0.622 c 0,-0.241 -0.007,-1.058 0,-1.207 0.022,-0.488 0.128,-0.579 0.82,-0.579 0.183,0 0.494,0 0.677,0.079 0.184,0.077 0.269,0.216 0.319,0.507 0.014,0.078 0.028,0.107 0.063,0.107 0.042,0 0.042,-0.058 0.042,-0.107 0,-0.057 -0.056,-0.537 -0.091,-0.686 -0.05,-0.184 -0.106,-0.184 -0.382,-0.184 -1.066,0 -1.54,0.041 -1.744,0.041 -0.036,0 -0.48,-0.019 -0.692,-0.019 -0.078,0 -0.114,0.012 -0.114,0.056 0,0.021 0.015,0.042 0.057,0.042 0.063,0 0.148,0.014 0.212,0.029 0.141,0.028 0.177,0.184 0.205,0.388 0.035,0.298 0.035,0.856 0.035,1.533 z"
                 id="path1035"
                 style="fill:#ffffff;fill-opacity:1;fill-rule:nonzero;stroke:none" />
              <path
                 inkscape:connector-curvature="0"
                 d="m 456.808,704.939 c 0,0.545 0,1.262 0.007,1.504 0,0.078 0.02,0.113 0.084,0.141 0.057,0.028 0.318,0.051 0.459,0.051 0.841,0 1.647,-0.1 2.309,-0.801 0.291,-0.303 0.679,-0.882 0.679,-1.779 0,-0.65 -0.198,-1.329 -0.565,-1.687 -0.417,-0.416 -1.024,-0.658 -1.681,-0.658 -0.833,0 -1.109,0.149 -1.201,0.283 -0.057,0.078 -0.071,0.36 -0.077,0.538 -0.007,0.131 -0.014,0.781 -0.014,1.531 z m -0.594,-1.357 c 0,-0.677 0,-1.235 -0.036,-1.533 -0.027,-0.204 -0.063,-0.36 -0.205,-0.388 -0.063,-0.015 -0.147,-0.029 -0.211,-0.029 -0.042,0 -0.056,-0.021 -0.056,-0.042 0,-0.044 0.035,-0.056 0.113,-0.056 0.211,0 0.657,0.019 0.692,0.019 0.07,0 0.96,-0.083 1.568,-0.083 1.2,0 1.835,0.496 2.14,0.812 0.395,0.416 0.762,1.102 0.762,1.992 0,0.84 -0.332,1.426 -0.685,1.796 -0.84,0.867 -2.132,0.803 -2.831,0.803 -0.425,0 -0.869,-0.023 -0.954,-0.023 -0.036,0 -0.481,0.023 -0.798,0.023 -0.078,0 -0.113,-0.014 -0.113,-0.058 0,-0.028 0.028,-0.042 0.056,-0.042 0.064,0 0.184,-0.007 0.24,-0.021 0.233,-0.049 0.29,-0.16 0.304,-0.401 0.014,-0.227 0.014,-0.424 0.014,-1.525 z"
                 id="path1037"
                 style="fill:#ffffff;fill-opacity:1;fill-rule:nonzero;stroke:none" />
              <path
                 inkscape:connector-curvature="0"
                 d="m 464.456,707.835 c 0.035,-0.064 0,-0.086 -0.028,-0.086 -0.021,0 -0.092,0.015 -0.212,0 -0.346,-0.035 -0.841,-0.198 -1.074,-0.298 -0.049,-0.021 -0.092,-0.035 -0.105,-0.035 -0.014,0 -0.036,0.014 -0.036,0.043 0,0.021 0.014,0.036 0.049,0.057 0.255,0.177 0.911,0.572 0.961,0.6 0.12,0.071 0.163,0.093 0.198,0.093 0.021,0 0.035,-0.015 0.07,-0.065 0.05,-0.07 0.099,-0.17 0.177,-0.309 m -2.048,-3.009 c 0,1.101 0,1.298 -0.014,1.525 -0.014,0.241 -0.071,0.352 -0.304,0.401 -0.056,0.014 -0.176,0.021 -0.24,0.021 -0.028,0 -0.056,0.014 -0.056,0.042 0,0.044 0.035,0.058 0.113,0.058 0.317,0 0.762,-0.023 0.798,-0.023 0.049,0 1.454,0 1.617,0.009 0.134,0.007 0.247,0.021 0.304,0.035 0.035,0.007 0.063,0.035 0.098,0.035 0.022,0 0.029,-0.028 0.029,-0.063 0,-0.051 -0.036,-0.135 -0.057,-0.331 -0.007,-0.071 -0.021,-0.383 -0.035,-0.465 -0.008,-0.035 -0.021,-0.079 -0.049,-0.079 -0.043,0 -0.057,0.035 -0.057,0.092 0,0.049 -0.007,0.168 -0.043,0.253 -0.049,0.115 -0.12,0.199 -0.501,0.241 -0.12,0.015 -0.89,0.022 -0.968,0.022 -0.028,0 -0.042,-0.022 -0.042,-0.071 v -1.95 c 0,-0.05 0.008,-0.071 0.042,-0.071 0.092,0 0.961,0 1.124,0.012 0.169,0.016 0.268,0.03 0.332,0.1 0.049,0.059 0.077,0.094 0.105,0.094 0.022,0 0.036,-0.014 0.036,-0.058 0,-0.042 -0.036,-0.164 -0.057,-0.393 -0.014,-0.142 -0.028,-0.406 -0.028,-0.454 0,-0.056 0,-0.132 -0.05,-0.132 -0.035,0 -0.049,0.028 -0.049,0.063 0,0.069 0,0.138 -0.028,0.231 -0.028,0.099 -0.092,0.22 -0.368,0.248 -0.19,0.021 -0.889,0.035 -1.01,0.035 -0.035,0 -0.049,-0.019 -0.049,-0.049 v -0.622 c 0,-0.241 -0.007,-1.058 0,-1.207 0.022,-0.488 0.127,-0.579 0.82,-0.579 0.183,0 0.494,0 0.678,0.079 0.183,0.077 0.267,0.216 0.317,0.507 0.014,0.078 0.029,0.107 0.064,0.107 0.042,0 0.042,-0.058 0.042,-0.107 0,-0.057 -0.057,-0.537 -0.092,-0.686 -0.049,-0.184 -0.106,-0.184 -0.381,-0.184 -1.067,0 -1.539,0.041 -1.744,0.041 -0.036,0 -0.481,-0.019 -0.693,-0.019 -0.078,0 -0.112,0.012 -0.112,0.056 0,0.021 0.014,0.042 0.056,0.042 0.063,0 0.148,0.014 0.212,0.029 0.141,0.028 0.176,0.184 0.204,0.388 0.036,0.298 0.036,0.856 0.036,1.533 z"
                 id="path1039"
                 style="fill:#ffffff;fill-opacity:1;fill-rule:nonzero;stroke:none" />
              <path
                 inkscape:connector-curvature="0"
                 d="m 467.281,706.521 c 0,0.042 0.021,0.071 0.057,0.084 0.07,0.023 0.261,0.044 0.473,0.044 0.756,0 1.221,-0.532 1.221,-1.414 0,-0.536 -0.183,-0.917 -0.431,-1.087 -0.162,-0.115 -0.36,-0.135 -0.529,-0.135 -0.311,0 -0.636,0.049 -0.742,0.113 -0.035,0.022 -0.049,0.049 -0.049,0.085 z m -0.565,-2.939 c 0,-0.677 0,-1.235 -0.035,-1.533 -0.029,-0.204 -0.064,-0.36 -0.205,-0.388 -0.063,-0.015 -0.149,-0.029 -0.212,-0.029 -0.042,0 -0.057,-0.021 -0.057,-0.042 0,-0.044 0.036,-0.056 0.113,-0.056 0.212,0 0.658,0.019 0.664,0.019 0.035,0 0.481,-0.019 0.869,-0.019 0.078,0 0.113,0.019 0.113,0.056 0,0.021 -0.014,0.042 -0.056,0.042 -0.064,0 -0.219,0.014 -0.319,0.029 -0.211,0.028 -0.253,0.184 -0.275,0.388 -0.035,0.298 -0.035,0.856 -0.035,1.533 v 0.17 c 0,0.034 0.014,0.056 0.049,0.056 l 0.869,-0.014 c 0.042,0 0.064,-0.015 0.092,-0.042 0.142,-0.184 0.473,-0.656 0.77,-1.047 0.402,-0.529 0.65,-0.874 0.953,-1.038 0.184,-0.099 0.36,-0.133 0.756,-0.133 h 0.501 c 0.128,0 0.169,0.012 0.169,0.056 0,0.021 -0.027,0.042 -0.063,0.042 -0.042,0 -0.141,0 -0.276,0.022 -0.176,0.028 -0.479,0.107 -0.861,0.506 -0.409,0.44 -0.89,1.068 -1.469,1.81 0.636,0.586 0.854,1.107 0.854,1.631 0,0.489 -0.31,0.834 -0.486,0.962 -0.375,0.266 -0.848,0.31 -1.293,0.31 -0.219,0 -0.756,-0.023 -0.834,-0.023 -0.034,0 -0.48,0.023 -0.798,0.023 -0.077,0 -0.112,-0.014 -0.112,-0.058 0,-0.028 0.027,-0.042 0.056,-0.042 0.064,0 0.184,-0.007 0.24,-0.021 0.234,-0.049 0.29,-0.16 0.303,-0.401 0.015,-0.227 0.015,-0.424 0.015,-1.525 z"
                 id="path1041"
                 style="fill:#ffffff;fill-opacity:1;fill-rule:nonzero;stroke:none" />
              <path
                 inkscape:connector-curvature="0"
                 d="m 472.443,703.87 c -0.02,0 -0.035,0.014 -0.02,0.051 l 0.621,1.907 c 0.035,0.107 0.07,0.107 0.105,0 l 0.672,-1.907 c 0.007,-0.03 0.007,-0.051 -0.029,-0.051 z m -0.988,-1.558 c -0.127,-0.353 -0.269,-0.623 -0.593,-0.666 -0.057,-0.007 -0.156,-0.014 -0.206,-0.014 -0.034,0 -0.063,-0.014 -0.063,-0.042 0,-0.044 0.042,-0.056 0.134,-0.056 0.332,0 0.72,0.019 0.798,0.019 0.078,0 0.382,-0.019 0.551,-0.019 0.064,0 0.106,0.012 0.106,0.056 0,0.028 -0.021,0.042 -0.07,0.042 h -0.071 c -0.12,0 -0.269,0.064 -0.269,0.206 0,0.128 0.036,0.294 0.099,0.474 l 0.424,1.25 c 0.014,0.034 0.035,0.055 0.071,0.055 h 1.518 c 0.036,0 0.05,-0.013 0.064,-0.041 l 0.657,-1.738 c 0.042,-0.113 0,-0.177 -0.043,-0.192 -0.028,-0.007 -0.049,-0.021 -0.049,-0.049 0,-0.044 0.077,-0.044 0.212,-0.051 0.487,-0.012 1.003,-0.012 1.108,-0.012 0.078,0 0.142,0.012 0.142,0.056 0,0.035 -0.028,0.042 -0.071,0.042 -0.071,0 -0.176,0.007 -0.283,0.042 -0.148,0.043 -0.352,0.157 -0.606,0.786 -0.431,1.073 -1.541,3.991 -1.647,4.258 -0.084,0.219 -0.112,0.254 -0.155,0.254 -0.042,0 -0.07,-0.043 -0.155,-0.275 z"
                 id="path1043"
                 style="fill:#ffffff;fill-opacity:1;fill-rule:nonzero;stroke:none" />
              <path
                 inkscape:connector-curvature="0"
                 d="m 477.578,703.568 c 0,-1.037 0.029,-1.492 0.155,-1.616 0.113,-0.114 0.297,-0.163 0.848,-0.163 0.374,0 0.684,0.007 0.854,0.212 0.092,0.11 0.163,0.288 0.184,0.423 0.007,0.058 0.021,0.093 0.064,0.093 0.035,0 0.042,-0.028 0.042,-0.107 0,-0.078 -0.05,-0.5 -0.106,-0.707 -0.049,-0.164 -0.07,-0.191 -0.445,-0.191 -1.017,0 -1.483,0.041 -1.893,0.041 -0.063,0 -0.48,-0.019 -0.692,-0.019 -0.078,0 -0.113,0.012 -0.113,0.056 0,0.021 0.014,0.042 0.057,0.042 0.063,0 0.148,0.014 0.211,0.029 0.142,0.028 0.177,0.184 0.206,0.388 0.035,0.298 0.035,0.856 0.035,1.533 v 1.244 c 0,1.101 0,1.298 -0.015,1.525 -0.014,0.241 -0.07,0.352 -0.303,0.401 -0.057,0.014 -0.177,0.021 -0.241,0.021 -0.028,0 -0.056,0.014 -0.056,0.042 0,0.044 0.036,0.058 0.114,0.058 0.317,0 0.762,-0.023 0.797,-0.023 0.035,0 0.552,0.023 0.763,0.023 0.078,0 0.113,-0.014 0.113,-0.058 0,-0.028 -0.028,-0.042 -0.057,-0.042 -0.049,0 -0.148,-0.007 -0.233,-0.021 -0.204,-0.034 -0.26,-0.153 -0.275,-0.401 -0.014,-0.227 -0.014,-0.424 -0.014,-1.525 z"
                 id="path1045"
                 style="fill:#ffffff;fill-opacity:1;fill-rule:nonzero;stroke:none" />
              <path
                 inkscape:connector-curvature="0"
                 d="m 481.165,704.826 c 0,1.101 0,1.298 -0.014,1.525 -0.014,0.241 -0.07,0.352 -0.303,0.401 -0.057,0.014 -0.177,0.021 -0.241,0.021 -0.028,0 -0.056,0.014 -0.056,0.042 0,0.044 0.036,0.058 0.113,0.058 0.318,0 0.763,-0.023 0.798,-0.023 0.049,0 1.456,0 1.618,0.009 0.134,0.007 0.247,0.021 0.303,0.035 0.035,0.007 0.063,0.035 0.099,0.035 0.022,0 0.028,-0.028 0.028,-0.063 0,-0.051 -0.035,-0.135 -0.056,-0.331 -0.008,-0.071 -0.022,-0.383 -0.036,-0.465 -0.007,-0.035 -0.021,-0.079 -0.049,-0.079 -0.042,0 -0.056,0.035 -0.056,0.092 0,0.049 -0.007,0.168 -0.043,0.253 -0.049,0.115 -0.12,0.199 -0.501,0.241 -0.12,0.015 -0.89,0.022 -0.968,0.022 -0.028,0 -0.043,-0.022 -0.043,-0.071 v -1.95 c 0,-0.05 0.008,-0.071 0.043,-0.071 0.092,0 0.961,0 1.123,0.012 0.17,0.016 0.269,0.03 0.332,0.1 0.05,0.059 0.078,0.094 0.106,0.094 0.021,0 0.035,-0.014 0.035,-0.058 0,-0.042 -0.035,-0.164 -0.056,-0.393 -0.014,-0.142 -0.028,-0.406 -0.028,-0.454 0,-0.056 0,-0.132 -0.05,-0.132 -0.035,0 -0.049,0.028 -0.049,0.063 0,0.069 0,0.138 -0.028,0.231 -0.029,0.099 -0.092,0.22 -0.368,0.248 -0.191,0.021 -0.89,0.035 -1.01,0.035 -0.035,0 -0.05,-0.019 -0.05,-0.049 v -0.622 c 0,-0.241 -0.006,-1.058 0,-1.207 0.022,-0.488 0.129,-0.579 0.82,-0.579 0.184,0 0.494,0 0.678,0.079 0.183,0.077 0.269,0.216 0.318,0.507 0.014,0.078 0.028,0.107 0.064,0.107 0.042,0 0.042,-0.058 0.042,-0.107 0,-0.057 -0.056,-0.537 -0.092,-0.686 -0.049,-0.184 -0.106,-0.184 -0.381,-0.184 -1.067,0 -1.54,0.041 -1.745,0.041 -0.035,0 -0.48,-0.019 -0.692,-0.019 -0.078,0 -0.113,0.012 -0.113,0.056 0,0.021 0.014,0.042 0.056,0.042 0.064,0 0.149,0.014 0.212,0.029 0.142,0.028 0.176,0.184 0.206,0.388 0.034,0.298 0.034,0.856 0.034,1.533 z"
                 id="path1047"
                 style="fill:#ffffff;fill-opacity:1;fill-rule:nonzero;stroke:none" />
              <path
                 inkscape:connector-curvature="0"
                 d="m 488.362,704.939 c 0,0.545 0,1.262 0.007,1.504 0,0.078 0.021,0.113 0.085,0.141 0.056,0.028 0.318,0.051 0.459,0.051 0.84,0 1.645,-0.1 2.309,-0.801 0.29,-0.303 0.678,-0.882 0.678,-1.779 0,-0.65 -0.198,-1.329 -0.565,-1.687 -0.416,-0.416 -1.024,-0.658 -1.681,-0.658 -0.833,0 -1.108,0.149 -1.2,0.283 -0.057,0.078 -0.071,0.36 -0.078,0.538 -0.007,0.131 -0.014,0.781 -0.014,1.531 z m -0.594,-1.357 c 0,-0.677 0,-1.235 -0.034,-1.533 -0.029,-0.204 -0.064,-0.36 -0.205,-0.388 -0.064,-0.015 -0.149,-0.029 -0.212,-0.029 -0.042,0 -0.056,-0.021 -0.056,-0.042 0,-0.044 0.035,-0.056 0.112,-0.056 0.212,0 0.658,0.019 0.692,0.019 0.071,0 0.961,-0.083 1.569,-0.083 1.199,0 1.836,0.496 2.14,0.812 0.395,0.416 0.762,1.102 0.762,1.992 0,0.84 -0.332,1.426 -0.686,1.796 -0.84,0.867 -2.132,0.803 -2.831,0.803 -0.424,0 -0.868,-0.023 -0.954,-0.023 -0.034,0 -0.48,0.023 -0.797,0.023 -0.078,0 -0.113,-0.014 -0.113,-0.058 0,-0.028 0.028,-0.042 0.055,-0.042 0.065,0 0.185,-0.007 0.241,-0.021 0.233,-0.049 0.29,-0.16 0.304,-0.401 0.013,-0.227 0.013,-0.424 0.013,-1.525 z"
                 id="path1049"
                 style="fill:#ffffff;fill-opacity:1;fill-rule:nonzero;stroke:none" />
              <path
                 inkscape:connector-curvature="0"
                 d="m 494.245,704.826 c 0,1.101 0,1.298 -0.014,1.525 -0.015,0.241 -0.07,0.352 -0.304,0.401 -0.056,0.014 -0.177,0.021 -0.24,0.021 -0.028,0 -0.057,0.014 -0.057,0.042 0,0.044 0.036,0.058 0.114,0.058 0.317,0 0.762,-0.023 0.798,-0.023 0.049,0 1.454,0 1.616,0.009 0.135,0.007 0.249,0.021 0.305,0.035 0.036,0.007 0.063,0.035 0.098,0.035 0.022,0 0.03,-0.028 0.03,-0.063 0,-0.051 -0.037,-0.135 -0.058,-0.331 -0.007,-0.071 -0.021,-0.383 -0.034,-0.465 -0.007,-0.035 -0.021,-0.079 -0.048,-0.079 -0.044,0 -0.059,0.035 -0.059,0.092 0,0.049 -0.006,0.168 -0.041,0.253 -0.051,0.115 -0.121,0.199 -0.502,0.241 -0.12,0.015 -0.891,0.022 -0.968,0.022 -0.028,0 -0.042,-0.022 -0.042,-0.071 v -1.95 c 0,-0.05 0.006,-0.071 0.042,-0.071 0.091,0 0.96,0 1.123,0.012 0.169,0.016 0.268,0.03 0.332,0.1 0.05,0.059 0.078,0.094 0.106,0.094 0.021,0 0.036,-0.014 0.036,-0.058 0,-0.042 -0.036,-0.164 -0.057,-0.393 -0.014,-0.142 -0.029,-0.406 -0.029,-0.454 0,-0.056 0,-0.132 -0.049,-0.132 -0.035,0 -0.05,0.028 -0.05,0.063 0,0.069 0,0.138 -0.028,0.231 -0.028,0.099 -0.092,0.22 -0.366,0.248 -0.192,0.021 -0.892,0.035 -1.011,0.035 -0.035,0 -0.049,-0.019 -0.049,-0.049 v -0.622 c 0,-0.241 -0.008,-1.058 0,-1.207 0.021,-0.488 0.124,-0.579 0.818,-0.579 0.184,0 0.495,0 0.679,0.079 0.183,0.077 0.268,0.216 0.317,0.507 0.013,0.078 0.027,0.107 0.062,0.107 0.044,0 0.044,-0.058 0.044,-0.107 0,-0.057 -0.058,-0.537 -0.093,-0.686 -0.048,-0.184 -0.105,-0.184 -0.379,-0.184 -1.067,0 -1.539,0.041 -1.745,0.041 -0.036,0 -0.481,-0.019 -0.692,-0.019 -0.078,0 -0.113,0.012 -0.113,0.056 0,0.021 0.013,0.042 0.056,0.042 0.064,0 0.149,0.014 0.212,0.029 0.142,0.028 0.176,0.184 0.204,0.388 0.036,0.298 0.036,0.856 0.036,1.533 z"
                 id="path1051"
                 style="fill:#ffffff;fill-opacity:1;fill-rule:nonzero;stroke:none" />
              <path
                 inkscape:connector-curvature="0"
                 d="m 501.442,703.568 c 0,-1.037 0.028,-1.492 0.156,-1.616 0.112,-0.114 0.295,-0.163 0.847,-0.163 0.374,0 0.683,0.007 0.854,0.212 0.093,0.11 0.163,0.288 0.184,0.423 0.007,0.058 0.021,0.093 0.063,0.093 0.035,0 0.042,-0.028 0.042,-0.107 0,-0.078 -0.049,-0.5 -0.105,-0.707 -0.048,-0.164 -0.07,-0.191 -0.445,-0.191 -1.018,0 -1.483,0.041 -1.892,0.041 -0.064,0 -0.481,-0.019 -0.692,-0.019 -0.079,0 -0.115,0.012 -0.115,0.056 0,0.021 0.015,0.042 0.057,0.042 0.064,0 0.15,0.014 0.212,0.029 0.14,0.028 0.176,0.184 0.204,0.388 0.037,0.298 0.037,0.856 0.037,1.533 v 1.244 c 0,1.101 0,1.298 -0.016,1.525 -0.014,0.241 -0.07,0.352 -0.302,0.401 -0.056,0.014 -0.177,0.021 -0.24,0.021 -0.029,0 -0.058,0.014 -0.058,0.042 0,0.044 0.037,0.058 0.114,0.058 0.318,0 0.764,-0.023 0.799,-0.023 0.034,0 0.551,0.023 0.762,0.023 0.076,0 0.112,-0.014 0.112,-0.058 0,-0.028 -0.029,-0.042 -0.057,-0.042 -0.049,0 -0.147,-0.007 -0.231,-0.021 -0.206,-0.034 -0.262,-0.153 -0.276,-0.401 -0.014,-0.227 -0.014,-0.424 -0.014,-1.525 z"
                 id="path1053"
                 style="fill:#ffffff;fill-opacity:1;fill-rule:nonzero;stroke:none" />
              <g
                 id="g1055"
                 style="fill:#ffffff;fill-opacity:1">
                <g
                   clip-path="url(#clipPath1059)"
                   id="g1057"
                   style="fill:#ffffff;fill-opacity:1">
                  <path
                     inkscape:connector-curvature="0"
                     d="m 505.572,703.87 c -0.021,0 -0.035,0.014 -0.021,0.051 l 0.621,1.907 c 0.036,0.107 0.072,0.107 0.108,0 l 0.671,-1.907 c 0.008,-0.03 0.008,-0.051 -0.029,-0.051 z m -0.986,-1.558 c -0.129,-0.353 -0.271,-0.623 -0.593,-0.666 -0.059,-0.007 -0.158,-0.014 -0.208,-0.014 -0.035,0 -0.064,-0.014 -0.064,-0.042 0,-0.044 0.043,-0.056 0.136,-0.056 0.331,0 0.721,0.019 0.799,0.019 0.077,0 0.38,-0.019 0.552,-0.019 0.063,0 0.104,0.012 0.104,0.056 0,0.028 -0.02,0.042 -0.069,0.042 h -0.071 c -0.122,0 -0.271,0.064 -0.271,0.206 0,0.128 0.035,0.294 0.1,0.474 l 0.423,1.25 c 0.014,0.034 0.035,0.055 0.07,0.055 h 1.521 c 0.035,0 0.048,-0.013 0.063,-0.041 l 0.655,-1.738 c 0.043,-0.113 0,-0.177 -0.042,-0.192 -0.028,-0.007 -0.048,-0.021 -0.048,-0.049 0,-0.044 0.075,-0.044 0.211,-0.051 0.486,-0.012 1.002,-0.012 1.109,-0.012 0.077,0 0.141,0.012 0.141,0.056 0,0.035 -0.029,0.042 -0.071,0.042 -0.07,0 -0.177,0.007 -0.28,0.042 -0.15,0.043 -0.356,0.157 -0.608,0.786 -0.433,1.073 -1.541,3.991 -1.646,4.258 -0.084,0.219 -0.112,0.254 -0.155,0.254 -0.043,0 -0.072,-0.043 -0.156,-0.275 z"
                     id="path1063"
                     style="fill:#ffffff;fill-opacity:1;fill-rule:nonzero;stroke:none" />
                  <path
                     inkscape:connector-curvature="0"
                     d="m 509.704,704.826 c 0,1.101 0,1.298 -0.014,1.525 -0.015,0.241 -0.07,0.352 -0.302,0.401 -0.056,0.014 -0.177,0.021 -0.241,0.021 -0.03,0 -0.058,0.014 -0.058,0.042 0,0.044 0.037,0.058 0.115,0.058 0.316,0 0.749,-0.023 0.811,-0.023 0.063,0 0.489,0.023 0.698,0.023 0.079,0 0.113,-0.014 0.113,-0.058 0,-0.028 -0.026,-0.042 -0.055,-0.042 -0.051,0 -0.093,-0.007 -0.177,-0.021 -0.19,-0.027 -0.247,-0.153 -0.261,-0.401 -0.013,-0.227 -0.013,-0.424 -0.013,-1.525 v -0.991 c 0,-1.017 0.226,-1.453 0.528,-1.744 0.347,-0.324 0.665,-0.388 1.067,-0.388 0.43,0 0.856,0.207 1.108,0.508 0.326,0.403 0.41,1.004 0.41,1.731 v 0.884 c 0,1.101 0,1.298 -0.013,1.525 -0.012,0.241 -0.071,0.352 -0.305,0.401 -0.057,0.014 -0.177,0.021 -0.238,0.021 -0.027,0 -0.057,0.014 -0.057,0.042 0,0.044 0.036,0.058 0.112,0.058 0.317,0 0.705,-0.023 0.749,-0.023 0.049,0 0.382,0.023 0.593,0.023 0.077,0 0.113,-0.014 0.113,-0.058 0,-0.028 -0.028,-0.042 -0.057,-0.042 -0.049,0 -0.092,0 -0.178,-0.021 -0.187,-0.034 -0.245,-0.153 -0.259,-0.401 -0.014,-0.227 -0.014,-0.424 -0.014,-1.525 v -0.757 c 0,-0.765 -0.086,-1.609 -0.65,-2.11 -0.508,-0.455 -1.037,-0.524 -1.455,-0.524 -0.239,0 -0.954,0.028 -1.454,0.503 -0.346,0.33 -0.616,0.824 -0.616,1.856 z"
                     id="path1065"
                     style="fill:#ffffff;fill-opacity:1;fill-rule:nonzero;stroke:none" />
                  <path
                     inkscape:connector-curvature="0"
                     d="m 515.523,701.625 c -0.099,0.049 -0.106,0.078 -0.106,0.269 0,0.353 0.028,0.637 0.037,0.748 0.007,0.076 0.021,0.113 0.056,0.113 0.042,0 0.049,-0.021 0.049,-0.078 0,-0.063 0,-0.16 0.021,-0.26 0.107,-0.523 0.573,-0.721 1.046,-0.721 0.678,0 1.009,0.487 1.009,0.939 0,0.489 -0.203,0.77 -0.811,1.27 l -0.319,0.264 c -0.747,0.614 -0.918,1.051 -0.918,1.531 0,0.757 0.566,1.272 1.462,1.272 0.276,0 0.481,-0.028 0.657,-0.071 0.134,-0.028 0.191,-0.035 0.247,-0.035 0.057,0 0.073,-0.016 0.073,-0.051 0,-0.035 -0.029,-0.266 -0.029,-0.745 0,-0.115 -0.014,-0.164 -0.051,-0.164 -0.042,0 -0.049,0.036 -0.056,0.092 -0.007,0.085 -0.05,0.275 -0.093,0.353 -0.042,0.077 -0.232,0.374 -0.88,0.374 -0.489,0 -0.872,-0.304 -0.872,-0.819 0,-0.402 0.2,-0.642 0.865,-1.186 l 0.195,-0.157 c 0.834,-0.658 1.032,-1.095 1.032,-1.658 0,-0.291 -0.111,-0.829 -0.6,-1.173 -0.304,-0.214 -0.684,-0.297 -1.066,-0.297 -0.333,0 -0.656,0.049 -0.948,0.19"
                     id="path1067"
                     style="fill:#ffffff;fill-opacity:1;fill-rule:nonzero;stroke:none" />
                </g>
              </g>
              <path
                 inkscape:connector-curvature="0"
                 d="m 520.405,703.87 c -0.021,0 -0.035,0.014 -0.021,0.051 l 0.622,1.907 c 0.035,0.107 0.069,0.107 0.103,0 l 0.672,-1.907 c 0.007,-0.03 0.007,-0.051 -0.03,-0.051 z m -0.99,-1.558 c -0.126,-0.353 -0.267,-0.623 -0.595,-0.666 -0.056,-0.007 -0.153,-0.014 -0.201,-0.014 -0.036,0 -0.064,-0.014 -0.064,-0.042 0,-0.044 0.042,-0.056 0.133,-0.056 0.332,0 0.718,0.019 0.797,0.019 0.077,0 0.383,-0.019 0.551,-0.019 0.063,0 0.105,0.012 0.105,0.056 0,0.028 -0.021,0.042 -0.069,0.042 h -0.073 c -0.118,0 -0.264,0.064 -0.264,0.206 0,0.128 0.035,0.294 0.098,0.474 l 0.423,1.25 c 0.014,0.034 0.036,0.055 0.072,0.055 h 1.517 c 0.034,0 0.048,-0.013 0.062,-0.041 l 0.658,-1.738 c 0.042,-0.113 0,-0.177 -0.042,-0.192 -0.029,-0.007 -0.051,-0.021 -0.051,-0.049 0,-0.044 0.079,-0.044 0.215,-0.051 0.486,-0.012 1,-0.012 1.108,-0.012 0.079,0 0.142,0.012 0.142,0.056 0,0.035 -0.029,0.042 -0.072,0.042 -0.07,0 -0.178,0.007 -0.283,0.042 -0.149,0.043 -0.353,0.157 -0.608,0.786 -0.43,1.073 -1.539,3.991 -1.646,4.258 -0.084,0.219 -0.113,0.254 -0.156,0.254 -0.041,0 -0.069,-0.043 -0.153,-0.275 z"
                 id="path1069"
                 style="fill:#ffffff;fill-opacity:1;fill-rule:nonzero;stroke:none" />
              <path
                 inkscape:connector-curvature="0"
                 d="m 525.136,702.496 c 0.015,-0.58 0.084,-0.764 0.275,-0.822 0.136,-0.035 0.29,-0.042 0.353,-0.042 0.035,0 0.057,-0.014 0.057,-0.042 0,-0.044 -0.043,-0.056 -0.126,-0.056 -0.405,0 -0.685,0.019 -0.749,0.019 -0.065,0 -0.361,-0.019 -0.679,-0.019 -0.071,0 -0.113,0.005 -0.113,0.056 0,0.028 0.021,0.042 0.056,0.042 0.057,0 0.185,0.007 0.291,0.042 0.174,0.051 0.21,0.257 0.21,0.898 l 0.006,4.049 c 0,0.273 0.023,0.351 0.079,0.351 0.057,0 0.178,-0.157 0.249,-0.227 0.106,-0.117 1.158,-1.255 2.245,-2.421 0.7,-0.748 1.467,-1.613 1.695,-1.842 l -0.078,3.588 c -0.008,0.458 -0.056,0.613 -0.274,0.668 -0.128,0.028 -0.292,0.035 -0.348,0.035 -0.05,0 -0.057,0.021 -0.057,0.049 0,0.044 0.057,0.051 0.142,0.051 0.318,0 0.658,-0.023 0.736,-0.023 0.077,0 0.308,0.023 0.6,0.023 0.077,0 0.127,-0.007 0.127,-0.051 0,-0.028 -0.028,-0.049 -0.078,-0.049 -0.035,0 -0.084,0 -0.17,-0.021 -0.234,-0.049 -0.261,-0.203 -0.261,-0.628 l -0.014,-4.138 c 0,-0.468 -0.015,-0.502 -0.063,-0.502 -0.055,0 -0.141,0.078 -0.516,0.454 -0.078,0.07 -1.096,1.108 -1.844,1.911 -0.818,0.884 -1.618,1.773 -1.842,2.029 z"
                 id="path1071"
                 style="fill:#ffffff;fill-opacity:1;fill-rule:nonzero;stroke:none" />
              <path
                 inkscape:connector-curvature="0"
                 d="m 531.823,702.496 c 0.015,-0.58 0.086,-0.764 0.277,-0.822 0.134,-0.035 0.288,-0.042 0.353,-0.042 0.035,0 0.056,-0.014 0.056,-0.042 0,-0.044 -0.042,-0.056 -0.129,-0.056 -0.401,0 -0.684,0.019 -0.747,0.019 -0.064,0 -0.36,-0.019 -0.678,-0.019 -0.07,0 -0.112,0.005 -0.112,0.056 0,0.028 0.022,0.042 0.057,0.042 0.055,0 0.182,0.007 0.287,0.042 0.177,0.051 0.214,0.257 0.214,0.898 l 0.007,4.049 c 0,0.273 0.021,0.351 0.077,0.351 0.056,0 0.177,-0.157 0.246,-0.227 0.107,-0.117 1.159,-1.255 2.247,-2.421 0.698,-0.748 1.469,-1.613 1.695,-1.842 l -0.076,3.588 c -0.008,0.458 -0.057,0.613 -0.277,0.668 -0.128,0.028 -0.29,0.035 -0.345,0.035 -0.049,0 -0.056,0.021 -0.056,0.049 0,0.044 0.056,0.051 0.14,0.051 0.318,0 0.656,-0.023 0.734,-0.023 0.077,0 0.31,0.023 0.6,0.023 0.077,0 0.126,-0.007 0.126,-0.051 0,-0.028 -0.027,-0.049 -0.078,-0.049 -0.035,0 -0.085,0 -0.168,-0.021 -0.232,-0.049 -0.261,-0.203 -0.261,-0.628 l -0.014,-4.138 c 0,-0.468 -0.015,-0.502 -0.063,-0.502 -0.058,0 -0.142,0.078 -0.515,0.454 -0.08,0.07 -1.094,1.108 -1.846,1.911 -0.818,0.884 -1.616,1.773 -1.843,2.029 z"
                 id="path1073"
                 style="fill:#ffffff;fill-opacity:1;fill-rule:nonzero;stroke:none" />
              <path
                 inkscape:connector-curvature="0"
                 d="m 538.322,704.826 c 0,1.101 0,1.298 -0.014,1.525 -0.016,0.241 -0.072,0.352 -0.304,0.401 -0.056,0.014 -0.176,0.021 -0.24,0.021 -0.029,0 -0.056,0.014 -0.056,0.042 0,0.044 0.035,0.058 0.112,0.058 0.317,0 0.764,-0.023 0.798,-0.023 0.049,0 1.456,0 1.619,0.009 0.132,0.007 0.243,0.021 0.302,0.035 0.035,0.007 0.063,0.035 0.099,0.035 0.022,0 0.029,-0.028 0.029,-0.063 0,-0.051 -0.036,-0.135 -0.058,-0.331 -0.007,-0.071 -0.021,-0.383 -0.035,-0.465 -0.007,-0.035 -0.021,-0.079 -0.05,-0.079 -0.044,0 -0.057,0.035 -0.057,0.092 0,0.049 -0.008,0.168 -0.041,0.253 -0.05,0.115 -0.12,0.199 -0.504,0.241 -0.118,0.015 -0.887,0.022 -0.964,0.022 -0.029,0 -0.043,-0.022 -0.043,-0.071 v -1.95 c 0,-0.05 0.008,-0.071 0.043,-0.071 0.091,0 0.959,0 1.123,0.012 0.17,0.016 0.268,0.03 0.331,0.1 0.047,0.059 0.076,0.094 0.105,0.094 0.022,0 0.036,-0.014 0.036,-0.058 0,-0.042 -0.036,-0.164 -0.058,-0.393 -0.015,-0.142 -0.028,-0.406 -0.028,-0.454 0,-0.056 0,-0.132 -0.048,-0.132 -0.036,0 -0.05,0.028 -0.05,0.063 0,0.069 0,0.138 -0.028,0.231 -0.027,0.099 -0.09,0.22 -0.367,0.248 -0.192,0.021 -0.889,0.035 -1.009,0.035 -0.036,0 -0.05,-0.019 -0.05,-0.049 v -0.622 c 0,-0.241 -0.007,-1.058 0,-1.207 0.021,-0.488 0.129,-0.579 0.82,-0.579 0.182,0 0.494,0 0.677,0.079 0.183,0.077 0.268,0.216 0.319,0.507 0.013,0.078 0.027,0.107 0.063,0.107 0.043,0 0.043,-0.058 0.043,-0.107 0,-0.057 -0.058,-0.537 -0.093,-0.686 -0.049,-0.184 -0.106,-0.184 -0.382,-0.184 -1.068,0 -1.54,0.041 -1.744,0.041 -0.034,0 -0.481,-0.019 -0.69,-0.019 -0.08,0 -0.114,0.012 -0.114,0.056 0,0.021 0.014,0.042 0.055,0.042 0.064,0 0.149,0.014 0.212,0.029 0.141,0.028 0.176,0.184 0.204,0.388 0.037,0.298 0.037,0.856 0.037,1.533 z"
                 id="path1075"
                 style="fill:#ffffff;fill-opacity:1;fill-rule:nonzero;stroke:none" />
            </g>
          </g>
        </g>
      </g>
    </g>
    <g
       transform="matrix(0.02584453,0,0,0.02584453,6.5098077,271.14959)"
       style="fill:none;fill-opacity:1;stroke:none;stroke-dasharray:none;stroke-opacity:1"
       id="g968">
      <title
         id="title922">Canvas 1</title>
      <g
         id="g966">
        <title
           id="title924">Layer 1</title>
        <path
           style="fill:#ffffff"
           inkscape:connector-curvature="0"
           d="m 933.5482,342.97271 204.6041,204.60409 c 20.0469,20.04694 20.0469,52.54946 0,72.5964 L 933.5482,824.7773 c -20.04694,20.04694 -52.54946,20.04694 -72.5964,0 L 656.3477,620.1732 c -20.04694,-20.04694 -20.04694,-52.54946 0,-72.5964 L 860.9518,342.97271 c 20.04694,-20.04695 52.54946,-20.04695 72.5964,0 z"
           id="path926" />
        <path
           style="stroke:#ffffff;stroke-width:0;stroke-linecap:round;stroke-linejoin:round"
           inkscape:connector-curvature="0"
           d="m 933.5482,342.97271 204.6041,204.60409 c 20.0469,20.04694 20.0469,52.54946 0,72.5964 L 933.5482,824.7773 c -20.04694,20.04694 -52.54946,20.04694 -72.5964,0 L 656.3477,620.1732 c -20.04694,-20.04694 -20.04694,-52.54946 0,-72.5964 L 860.9518,342.97271 c 20.04694,-20.04695 52.54946,-20.04695 72.5964,0 z"
           id="path928" />
        <line
           style="stroke:#ffa600;stroke-width:12.83335686;stroke-linecap:round;stroke-linejoin:round;marker-end:url(#FilledArrow_Marker-3)"
           x1="772.75531"
           y1="621.08063"
           x2="827.94165"
           y2="676.26697"
           id="line930" />
        <line
           style="stroke:#ffa600;stroke-width:12.83335686;stroke-linecap:round;stroke-linejoin:round;marker-end:url(#FilledArrow_Marker-3)"
           x1="874.14996"
           y1="474.7915"
           x2="874.14996"
           y2="653.97516"
           id="line932" />
        <line
           style="stroke:#ffffff;stroke-width:25.66671371;stroke-linecap:round;stroke-linejoin:round"
           x1="886.66376"
           y1="462.59824"
           x2="804.84985"
           y2="560.77496"
           id="line934" />
        <line
           style="stroke:#ffa600;stroke-width:12.83335686;stroke-linecap:round;stroke-linejoin:round;marker-end:url(#FilledArrow_Marker-3)"
           x1="839.90601"
           y1="462.12598"
           x2="799.3396"
           y2="509.45343"
           id="line936" />
        <circle
           style="fill:#ffa600"
           cx="874.14996"
           cy="422.17471"
           r="46.200157"
           id="circle938" />
        <circle
           style="stroke:#ffffff;stroke-width:12.83335686;stroke-linecap:round;stroke-linejoin:round"
           cx="874.14996"
           cy="422.17471"
           r="46.200157"
           id="circle940" />
        <circle
           style="fill:#ffa600"
           cx="897.25"
           cy="745.57532"
           r="46.200157"
           id="circle942" />
        <circle
           style="stroke:#ffffff;stroke-width:12.83335686;stroke-linecap:round;stroke-linejoin:round"
           cx="897.25"
           cy="745.57532"
           r="46.200157"
           id="circle944" />
        <circle
           style="fill:#ffa600"
           cx="735.54968"
           cy="583.875"
           r="46.200157"
           id="circle946" />
        <circle
           style="stroke:#ffffff;stroke-width:12.83335686;stroke-linecap:round;stroke-linejoin:round"
           cx="735.54968"
           cy="583.875"
           r="46.200157"
           id="circle948" />
        <line
           style="stroke:#0e3d7e;stroke-width:12.83340168;stroke-linecap:round;stroke-linejoin:round;marker-end:url(#FilledArrow_Marker_2-6)"
           x1="954.59399"
           y1="462.12598"
           x2="995.16028"
           y2="509.45331"
           id="line950" />
        <line
           style="stroke:#0e3d7e;stroke-width:12.83335686;stroke-linecap:round;stroke-linejoin:round;marker-end:url(#FilledArrow_Marker_3-7)"
           x1="1021.7447"
           y1="621.08063"
           x2="966.55829"
           y2="676.26697"
           id="line952" />
        <line
           style="stroke:#0e3d7e;stroke-width:12.83335686;stroke-linecap:round;stroke-linejoin:round;marker-end:url(#FilledArrow_Marker_3-7)"
           x1="886.10608"
           y1="462.12598"
           x2="811.29578"
           y2="549.40472"
           id="line954" />
        <circle
           style="fill:#0e3d7e"
           cx="1058.9503"
           cy="583.875"
           r="46.200157"
           id="circle956" />
        <circle
           style="stroke:#ffffff;stroke-width:12.83335686;stroke-linecap:round;stroke-linejoin:round"
           cx="1058.9503"
           cy="583.875"
           r="46.200157"
           id="circle958" />
        <line
           style="stroke:#0e3d7e;stroke-width:12.83335686;stroke-linecap:round;stroke-linejoin:round;marker-end:url(#FilledArrow_Marker_3-7)"
           x1="920.35004"
           y1="474.7915"
           x2="920.35004"
           y2="653.97516"
           id="line960" />
        <circle
           style="fill:#0e3d7e"
           cx="920.35004"
           cy="422.17471"
           r="46.200157"
           id="circle962" />
        <circle
           style="stroke:#ffffff;stroke-width:12.83335686;stroke-linecap:round;stroke-linejoin:round"
           cx="920.35004"
           cy="422.17471"
           r="46.200157"
           id="circle964" />
      </g>
    </g>
  </g>
</svg>
