<?xml version="1.0" encoding="utf-8" standalone="no"?>
<!DOCTYPE svg PUBLIC "-//W3C//DTD SVG 1.1//EN" "http://www.w3.org/Graphics/SVG/1.1/DTD/svg11.dtd">
<svg xmlns="http://www.w3.org/2000/svg" xmlns:xl="http://www.w3.org/1999/xlink" version="1.1" viewBox="640 326 515 515" width="515pt" height="515pt" xmlns:dc="http://purl.org/dc/elements/1.1/"><metadata> Produced by OmniGraffle 6.0.5 <dc:date>2015-11-14 05:47Z</dc:date></metadata><defs><marker orient="auto" overflow="visible" markerUnits="strokeWidth" id="FilledArrow_Marker" viewBox="-1 -2 5 4" markerWidth="5" markerHeight="4" color="#ffa600"><g><path d="M 2.0987004 0 L 0 -.78701265 L 0 .78701265 Z" fill="currentColor" stroke="currentColor" stroke-width="1"/></g></marker><marker orient="auto" overflow="visible" markerUnits="strokeWidth" id="FilledArrow_Marker_2" viewBox="-1 -2 5 4" markerWidth="5" markerHeight="4" color="#0e3d7e"><g><path d="M 2.0986986 0 L 0 -.787012 L 0 .787012 Z" fill="currentColor" stroke="currentColor" stroke-width="1"/></g></marker><marker orient="auto" overflow="visible" markerUnits="strokeWidth" id="FilledArrow_Marker_3" viewBox="-1 -2 5 4" markerWidth="5" markerHeight="4" color="#0e3d7e"><g><path d="M 2.0987004 0 L 0 -.78701265 L 0 .78701265 Z" fill="currentColor" stroke="currentColor" stroke-width="1"/></g></marker></defs><g stroke="none" stroke-opacity="1" stroke-dasharray="none" fill="none" fill-opacity="1"><title>Canvas 1</title><g><title>Layer 1</title><path d="M 933.5482 342.97271 L 1138.1523 547.5768 C 1158.19924 567.62374 1158.19924 600.12626 1138.1523 620.1732 L 933.5482 824.7773 C 913.50126 844.82424 880.99874 844.82424 860.9518 824.7773 L 656.3477 620.1732 C 636.30076 600.12626 636.30076 567.62374 656.3477 547.5768 L 860.9518 342.97271 C 880.99874 322.92576 913.50126 322.92576 933.5482 342.97271 Z" fill="white"/><path d="M 933.5482 342.97271 L 1138.1523 547.5768 C 1158.19924 567.62374 1158.19924 600.12626 1138.1523 620.1732 L 933.5482 824.7773 C 913.50126 844.82424 880.99874 844.82424 860.9518 824.7773 L 656.3477 620.1732 C 636.30076 600.12626 636.30076 567.62374 656.3477 547.5768 L 860.9518 342.97271 C 880.99874 322.92576 913.50126 322.92576 933.5482 342.97271 Z" stroke="white" stroke-linecap="round" stroke-linejoin="round" stroke-width="0"/><line x1="772.75533" y1="621.08063" x2="827.94167" y2="676.26696" marker-end="url(#FilledArrow_Marker)" stroke="#ffa600" stroke-linecap="round" stroke-linejoin="round" stroke-width="12.8333565"/><line x1="874.14996" y1="474.7915" x2="874.14996" y2="653.97514" marker-end="url(#FilledArrow_Marker)" stroke="#ffa600" stroke-linecap="round" stroke-linejoin="round" stroke-width="12.8333565"/><line x1="886.66376" y1="462.59825" x2="804.84983" y2="560.77496" stroke="white" stroke-linecap="round" stroke-linejoin="round" stroke-width="25.666713"/><line x1="839.906" y1="462.12598" x2="799.33962" y2="509.45342" marker-end="url(#FilledArrow_Marker)" stroke="#ffa600" stroke-linecap="round" stroke-linejoin="round" stroke-width="12.8333565"/><circle cx="874.14996" cy="422.1747" r="46.200159" fill="#ffa600"/><circle cx="874.14996" cy="422.1747" r="46.200159" stroke="white" stroke-linecap="round" stroke-linejoin="round" stroke-width="12.8333565"/><circle cx="897.25" cy="745.5753" r="46.200159" fill="#ffa600"/><circle cx="897.25" cy="745.5753" r="46.200159" stroke="white" stroke-linecap="round" stroke-linejoin="round" stroke-width="12.8333565"/><circle cx="735.5497" cy="583.875" r="46.200159" fill="#ffa600"/><circle cx="735.5497" cy="583.875" r="46.200159" stroke="white" stroke-linecap="round" stroke-linejoin="round" stroke-width="12.8333565"/><line x1="954.594" y1="462.12598" x2="995.1603" y2="509.45332" marker-end="url(#FilledArrow_Marker_2)" stroke="#0e3d7e" stroke-linecap="round" stroke-linejoin="round" stroke-width="12.833402"/><line x1="1021.74466" y1="621.08063" x2="966.5583" y2="676.26696" marker-end="url(#FilledArrow_Marker_3)" stroke="#0e3d7e" stroke-linecap="round" stroke-linejoin="round" stroke-width="12.8333565"/><line x1="886.1061" y1="462.12599" x2="811.29576" y2="549.4047" marker-end="url(#FilledArrow_Marker_3)" stroke="#0e3d7e" stroke-linecap="round" stroke-linejoin="round" stroke-width="12.8333565"/><circle cx="1058.9503" cy="583.875" r="46.200159" fill="#0e3d7e"/><circle cx="1058.9503" cy="583.875" r="46.200159" stroke="white" stroke-linecap="round" stroke-linejoin="round" stroke-width="12.8333565"/><line x1="920.35004" y1="474.7915" x2="920.35004" y2="653.97514" marker-end="url(#FilledArrow_Marker_3)" stroke="#0e3d7e" stroke-linecap="round" stroke-linejoin="round" stroke-width="12.8333565"/><circle cx="920.35004" cy="422.1747" r="46.200159" fill="#0e3d7e"/><circle cx="920.35004" cy="422.1747" r="46.200159" stroke="white" stroke-linecap="round" stroke-linejoin="round" stroke-width="12.8333565"/></g></g></svg>
